<svg width="151" height="40" viewBox="0 0 151 40" fill="none" xmlns="http://www.w3.org/2000/svg">
<g clip-path="url(#clip0_801_54165)">
<path d="M0.884994 18.3194C0.884994 18.3475 0.884994 18.3755 0.884994 18.4036V18.3194ZM1.95496 13.4239C1.85973 13.6876 1.76636 13.9542 1.67486 14.2235C1.75889 13.9429 1.85132 13.6876 1.95496 13.4239ZM2.62439 11.8248C2.49835 12.0885 2.38071 12.3522 2.27147 12.6244C2.38351 12.3438 2.50115 12.0885 2.62719 11.8248H2.62439ZM3.18458 10.7475C3.13417 10.8373 3.08655 10.9299 3.03894 11.0281C3.08655 10.9383 3.13417 10.8485 3.18458 10.7475ZM4.54866 8.621C4.35539 8.88191 4.16773 9.14843 3.98846 9.42055C4.16773 9.14001 4.35259 8.88191 4.54866 8.621ZM8.72769 4.46614L8.69968 4.48578L8.94337 4.31465C8.85934 4.36234 8.78651 4.41284 8.71649 4.46614H8.72769ZM10.0582 3.58243L9.65481 3.83492L10.0582 3.58523C10.3383 4.08741 10.5735 4.48297 10.8424 4.94587C10.5595 4.48017 10.3354 4.0818 10.0469 3.58243H10.0582ZM10.75 36.8157C11.0301 36.3191 11.2598 35.9264 11.5259 35.4691C11.2486 35.9264 11.0189 36.3304 10.7388 36.8157H10.75ZM11.7135 35.1324L11.5875 35.3513L11.7135 35.1324ZM11.7135 4.85048L11.0245 5.25166L10.9573 5.13945L11.0245 5.25447L11.7135 4.8561V4.85048ZM11.974 2.54722C12.2541 2.41256 12.5594 2.28631 12.8563 2.16568C12.5482 2.29473 12.2541 2.42097 11.9628 2.55563L11.974 2.54722ZM12.8563 2.16568C14.9968 1.30881 17.274 0.845972 19.5786 0.799428C17.2695 0.844952 14.9878 1.31075 12.8451 2.17409L12.8563 2.16568ZM19.5786 2.72677H20.3769H19.5786ZM20.3937 0.7854C21.6649 0.819576 22.9296 0.979324 24.1694 1.26232C22.9266 0.982724 21.6588 0.829517 20.3853 0.805036L20.3937 0.7854ZM24.4215 1.3044C24.598 1.34649 24.7688 1.38857 24.9425 1.43626C24.7716 1.40821 24.5896 1.36332 24.4131 1.32404L24.4215 1.3044ZM28.5277 37.172L28.6257 37.1243C28.7154 37.0794 28.8087 37.0317 28.9058 36.9812L28.5277 37.172ZM28.2476 35.1409C28.6005 35.7524 28.8638 36.2041 29.214 36.8241C29.1131 36.8802 29.0123 36.9363 28.9086 36.9896C28.9787 36.956 29.0459 36.9167 29.1131 36.8802L29.2196 36.8241C28.8498 36.2041 28.5921 35.7496 28.2364 35.1409H28.2476ZM29.903 3.58523C29.5501 4.19682 29.2868 4.64569 28.9395 5.2685C28.7042 5.13664 28.4773 5.00479 28.2476 4.86732C28.4773 4.99918 28.707 5.13384 28.9423 5.26569C29.2952 4.65411 29.5529 4.20243 29.9086 3.58243L29.903 3.58523ZM36.3732 29.9368C36.0688 30.4361 35.7421 30.9205 35.3929 31.39L35.292 31.5246C35.2024 31.6425 35.1156 31.7575 35.0119 31.8725C34.8775 32.0436 34.7318 32.2148 34.5974 32.3831L34.3425 32.6777C34.2585 32.7759 34.1689 32.8741 34.082 32.9582L34.054 32.9863C33.9476 33.1041 33.8383 33.2219 33.7263 33.3369C33.6143 33.452 33.477 33.5922 33.3482 33.7185L33.0681 33.9822L32.788 34.2291L32.7404 34.2712C32.6591 34.3441 32.5751 34.4199 32.4911 34.49L32.211 34.7341C32.1157 34.8154 32.0177 34.8968 31.9169 34.9753C31.7964 35.0707 31.6788 35.1633 31.5556 35.2559L31.5163 35.2867C31.4043 35.3709 31.2923 35.4551 31.1774 35.5364C31.0626 35.6178 30.9197 35.7244 30.7909 35.817L30.5696 35.9685C30.4576 36.0442 30.3455 36.1171 30.2307 36.1873L29.8918 36.4005L30.2895 36.1508L30.4828 36.0246C32.8717 34.4536 34.8811 32.3691 36.3648 29.9227L36.362 29.9368H36.3732ZM37.8605 28.8987C37.9894 28.635 38.1154 28.3713 38.2331 28.0992C38.1098 28.3685 37.9819 28.635 37.8493 28.8987H37.8605ZM38.7148 23.9864C38.5289 24.8572 38.2828 25.714 37.9782 26.5506L37.9474 26.6319C37.9109 26.7385 37.8689 26.8423 37.8269 26.9461C37.8132 26.989 37.7973 27.0312 37.7793 27.0724L37.6729 27.3333C37.5692 27.5886 37.4572 27.8383 37.3395 28.088C37.2219 28.3377 37.0847 28.6266 36.9446 28.8875C37.8169 27.2259 38.438 25.4437 38.7877 23.5993C38.7764 23.7423 38.7428 23.8714 38.7148 23.9864ZM39.1378 20.258V19.9774C39.1378 20.1906 39.1378 20.4039 39.1378 20.6171C39.1378 20.6535 39.1378 20.6928 39.1378 20.7321C39.1322 20.5918 39.135 20.4291 39.1378 20.2692V20.258ZM39.0565 25.8969C39.149 25.5995 39.2358 25.2966 39.3114 24.9936C39.2274 25.2994 39.1434 25.5995 39.0565 25.8969ZM0.890597 18.3222C0.890597 18.3503 0.890597 18.3783 0.890597 18.4064V18.3222ZM0.851384 14.2263C0.841331 14.2557 0.832912 14.2857 0.826172 14.316L0.890597 14.1028C0.87099 14.1421 0.856985 14.1814 0.845781 14.2235L0.851384 14.2263ZM1.97177 13.4267C1.87654 13.6904 1.78317 13.957 1.69167 14.2263C1.7757 13.9457 1.86813 13.6904 1.97177 13.4267ZM37.446 29.6983C37.2835 29.9788 37.1155 30.279 36.939 30.5624L36.981 30.4978C37.1407 30.2397 37.3003 29.9732 37.4488 29.6983H37.446ZM36.3788 29.9368C36.0744 30.4361 35.7477 30.9205 35.3985 31.39L35.2976 31.5246C35.208 31.6425 35.1212 31.7575 35.0175 31.8725C34.8831 32.0436 34.7375 32.2148 34.603 32.3831L34.3481 32.6777C34.2641 32.7759 34.1745 32.8741 34.0876 32.9582L34.0596 32.9863C33.9532 33.1041 33.8439 33.2219 33.7319 33.3369C33.6199 33.452 33.4826 33.5922 33.3538 33.7185L33.0737 33.9822L32.7936 34.2291L32.746 34.2712C32.6647 34.3441 32.5807 34.4199 32.4967 34.49L32.2166 34.7341C32.1213 34.8154 32.0233 34.8968 31.9225 34.9753C31.802 35.0707 31.6844 35.1633 31.5612 35.2559L31.5219 35.2867C31.4099 35.3709 31.2979 35.4551 31.183 35.5364C31.0682 35.6178 30.9253 35.7244 30.7965 35.817L30.5752 35.9685C30.4632 36.0442 30.3511 36.1171 30.2363 36.1873L29.8974 36.4005L30.2951 36.1508L30.4884 36.0246C32.8773 34.4536 34.8867 32.3691 36.3704 29.9227L36.362 29.9368H36.3788ZM31.718 36.1676C31.9113 36.0274 32.1017 35.8871 32.2922 35.73C32.1017 35.8787 31.9113 36.0246 31.718 36.1676ZM30.7265 36.8466C31.0626 36.6305 31.3931 36.4033 31.718 36.1676C31.3931 36.4005 31.0626 36.6277 30.7265 36.8466ZM29.6929 37.4666C29.973 37.3095 30.2531 37.1467 30.5332 36.9756C30.2503 37.1467 29.973 37.3095 29.6929 37.4666ZM28.2364 35.1409C28.5893 35.7524 28.8526 36.2041 29.2027 36.8241C29.1019 36.8802 29.0011 36.9363 28.8974 36.9896C28.9675 36.956 29.0347 36.9167 29.1019 36.8802L29.2083 36.8241C28.8498 36.2041 28.5921 35.7496 28.2364 35.1409ZM28.6201 38.0136C28.9002 37.8734 29.1999 37.7331 29.4828 37.5732C29.1971 37.7331 28.9114 37.8846 28.6201 38.0136ZM28.5277 37.172L28.6257 37.1243C28.7154 37.0794 28.8087 37.0317 28.9058 36.9812L28.5277 37.172ZM27.0572 38.701C27.2869 38.614 27.511 38.5242 27.735 38.4204C27.511 38.5214 27.2925 38.6112 27.0572 38.701ZM11.7023 35.1409L11.5763 35.3597L11.7023 35.1409ZM10.7388 36.8241C11.0189 36.3276 11.2486 35.9348 11.5147 35.4775C11.2486 35.9264 11.0189 36.3304 10.7388 36.8157V36.8241ZM3.17618 10.7559C3.12576 10.8457 3.07815 10.9383 3.03053 11.0365C3.07815 10.9467 3.12576 10.8569 3.17618 10.7559ZM2.12582 11.0365L2.26587 10.7559C2.21825 10.8373 2.16784 10.9299 2.12302 11.0197L2.12582 11.0365ZM1.40597 12.6412C1.40597 12.6075 1.43118 12.5767 1.44239 12.543C1.43118 12.5598 1.41718 12.5907 1.40317 12.6244L1.40597 12.6412ZM2.62719 11.8417C2.50115 12.1054 2.38351 12.3691 2.27427 12.6412C2.38631 12.3607 2.50395 12.1054 2.62999 11.8417H2.62719Z" fill="white"/>
<path d="M3.13967 9.24097L3.02515 9.42051C3.06146 9.3616 3.09777 9.30269 3.13967 9.24097Z" fill="white"/>
<path d="M27.3261 36.3113C27.3252 36.3065 27.3252 36.3016 27.3261 36.2969" stroke="white" stroke-width="0.25" stroke-miterlimit="10"/>
<path d="M27.9817 35.9324V35.918" stroke="white" stroke-width="0.25" stroke-miterlimit="10"/>
<path d="M18.1895 38.5593V38.5525" stroke="white" stroke-width="0.25" stroke-miterlimit="10"/>
<path d="M18.9458 38.5593V38.5525" stroke="white" stroke-width="0.25" stroke-miterlimit="10"/>
<path d="M19.6066 22.3565C19.6059 22.4612 19.5641 22.5614 19.4902 22.6354C19.4162 22.7094 19.3162 22.7513 19.2117 22.7521H14.6881C14.5836 22.7513 14.4836 22.7094 14.4097 22.6354C14.3358 22.5614 14.2939 22.4612 14.2932 22.3565C14.2932 22.3046 14.3034 22.2531 14.3233 22.2051C14.3431 22.1571 14.3722 22.1135 14.4089 22.0768C14.4456 22.0401 14.4891 22.0109 14.537 21.991C14.5849 21.9712 14.6363 21.9609 14.6881 21.9609H19.2257C19.328 21.9646 19.4249 22.0078 19.496 22.0816C19.567 22.1554 19.6067 22.254 19.6066 22.3565Z" fill="white"/>
<path d="M19.209 23.5598H14.6742C14.4561 23.5598 14.2793 23.7369 14.2793 23.9554V23.9638C14.2793 24.1823 14.4561 24.3594 14.6742 24.3594H19.209C19.4271 24.3594 19.6039 24.1823 19.6039 23.9638V23.9554C19.6039 23.7369 19.4271 23.5598 19.209 23.5598Z" fill="white"/>
<path d="M25.5111 15.4665L20.9063 13.3905C20.6694 13.2839 20.4126 13.2285 20.1529 13.2278H2.01944C1.83457 13.4915 1.66091 13.7524 1.49006 14.0273H19.1697C19.2213 14.027 19.2725 14.0369 19.3202 14.0565C19.368 14.0761 19.4114 14.105 19.4479 14.1415C19.4843 14.1781 19.5132 14.2215 19.5328 14.2694C19.5524 14.3172 19.5622 14.3684 19.5619 14.4201C19.5626 14.472 19.553 14.5236 19.5336 14.5717C19.5142 14.6198 19.4854 14.6636 19.4489 14.7005C19.4123 14.7373 19.3688 14.7665 19.3209 14.7863C19.273 14.8061 19.2216 14.816 19.1697 14.8157H1.01669C0.868241 15.0766 0.736594 15.3459 0.590944 15.6152H19.1697C19.2217 15.6152 19.2732 15.6256 19.3211 15.6456C19.3691 15.6657 19.4125 15.6952 19.449 15.7322C19.4855 15.7693 19.5143 15.8133 19.5336 15.8616C19.553 15.9099 19.5626 15.9615 19.5619 16.0136C19.563 16.0659 19.5537 16.1178 19.5345 16.1665C19.5153 16.2151 19.4866 16.2594 19.45 16.2968C19.4135 16.3341 19.3699 16.3638 19.3218 16.3841C19.2736 16.4043 19.222 16.4148 19.1697 16.4148H0.823424C0.705784 16.6757 0.593743 16.945 0.484506 17.2115H19.1697C19.2216 17.2111 19.273 17.2211 19.3209 17.2409C19.3688 17.2607 19.4123 17.2899 19.4489 17.3267C19.4854 17.3635 19.5142 17.4073 19.5336 17.4555C19.553 17.5036 19.5626 17.5552 19.5619 17.6071C19.5626 17.6591 19.553 17.7108 19.5336 17.7591C19.5143 17.8074 19.4855 17.8514 19.449 17.8884C19.4125 17.9255 19.3691 17.9549 19.3211 17.975C19.2732 17.9951 19.2217 18.0055 19.1697 18.0054H0.646962C0.55453 18.272 0.470504 18.5385 0.386475 18.805H20.1529C20.4126 18.8043 20.6694 18.7489 20.9063 18.6423L25.5111 16.5691C25.6183 16.5195 25.7092 16.4405 25.7732 16.3411C25.8372 16.2418 25.8716 16.1262 25.8724 16.008C25.8693 15.8928 25.8337 15.7809 25.7697 15.6851C25.7058 15.5893 25.6162 15.5135 25.5111 15.4665ZM23.5981 16.5887L20.3714 18.0391V14.0273C21.4497 14.5099 22.5225 14.9952 23.5981 15.4806V16.5887Z" fill="white"/>
<path d="M38.8045 24.3569C38.9642 24.0988 39.1238 23.8323 39.2723 23.5574H24.9089C24.4356 23.5574 24.2059 23.6471 23.7717 24.3625C23.5943 24.6024 23.3645 24.7985 23.1 24.9361C22.8355 25.0737 22.5432 25.1491 22.2452 25.1565H14.6574C14.6055 25.1565 14.5542 25.1667 14.5063 25.1866C14.4583 25.2065 14.4148 25.2356 14.3781 25.2723C14.3415 25.3091 14.3124 25.3527 14.2925 25.4007C14.2727 25.4487 14.2625 25.5001 14.2625 25.552V25.5661C14.2628 25.6176 14.2733 25.6687 14.2934 25.7162C14.3134 25.7637 14.3426 25.8068 14.3793 25.843C14.416 25.8792 14.4594 25.9078 14.5071 25.9272C14.5548 25.9466 14.6059 25.9564 14.6574 25.956C17.1923 25.956 19.7607 25.9841 22.2508 25.956C22.699 25.944 23.1374 25.8224 23.528 25.6019C23.9185 25.3814 24.2493 25.0686 24.4916 24.6908C24.5868 24.5561 24.6988 24.3569 24.8949 24.3569H37.5273" fill="white"/>
<path d="M38.8719 21.9581H24.9035C24.7074 21.9581 24.5954 21.7617 24.5001 21.6214C24.2563 21.2453 23.9251 20.9339 23.5348 20.714C23.1446 20.4942 22.7069 20.3723 22.2593 20.359C19.7693 20.3253 17.2008 20.359 14.6659 20.359C14.6144 20.3586 14.5634 20.3684 14.5157 20.3878C14.4679 20.4072 14.4245 20.4358 14.3878 20.472C14.3512 20.5082 14.322 20.5513 14.3019 20.5988C14.2819 20.6463 14.2714 20.6973 14.271 20.7489V20.7629C14.271 20.8679 14.3126 20.9685 14.3867 21.0426C14.4607 21.1168 14.5612 21.1585 14.6659 21.1585H22.2509C22.5494 21.1648 22.8424 21.2399 23.1072 21.3781C23.372 21.5163 23.6013 21.7138 23.7775 21.9553C24.2116 22.665 24.4413 22.7576 24.9147 22.7576H39.3957C39.5217 22.4939 39.6477 22.233 39.7654 21.9581" fill="white"/>
<path d="M37.8553 11.101C37.9879 11.3648 38.1139 11.6313 38.2334 11.9006C38.1102 11.6425 37.9841 11.362 37.8553 11.101ZM36.9534 11.101C37.0934 11.362 37.2335 11.6313 37.3483 11.9006C37.4632 12.1699 37.578 12.4 37.6816 12.6553L37.7881 12.9162C37.8061 12.9574 37.822 12.9995 37.8357 13.0424C37.8777 13.1462 37.9197 13.25 37.9561 13.3566L37.9869 13.438C38.3058 14.3103 38.5605 15.2048 38.7488 16.1144C38.3901 14.3666 37.7856 12.6787 36.9534 11.101ZM39.1381 19.7306C39.1381 19.5707 39.1381 19.408 39.1241 19.2452C39.1241 19.2845 39.1241 19.3238 39.1241 19.3603C39.1241 19.5735 39.1241 19.7867 39.1241 19.9999V19.7194L39.1381 19.7306ZM39.0569 14.1029C39.1493 14.4002 39.2334 14.7004 39.3118 15.0062C39.2306 14.7032 39.1437 14.4002 39.0569 14.1029ZM28.9342 34.7369C28.6989 34.8688 28.4693 35.0034 28.2396 35.1353C28.4693 34.9978 28.6961 34.8547 28.9314 34.7341C29.2787 35.3485 29.542 35.7974 29.895 36.4174C29.5336 35.8002 29.2815 35.3485 28.9286 34.7369H28.9342ZM24.4191 38.6645C24.5955 38.6252 24.7692 38.5804 24.94 38.5327C24.772 38.5916 24.5899 38.6337 24.4135 38.6757L24.4191 38.6645ZM20.3745 39.1807C21.6539 39.1572 22.9276 39.0021 24.1754 38.7178C22.9256 39.0035 21.6504 39.1623 20.3689 39.1919L20.3745 39.1807ZM19.5762 37.2365H20.3745H19.5762ZM12.8539 37.8145C14.9935 38.6746 17.2712 39.1384 19.5762 39.1835C17.2693 39.1407 14.9891 38.6807 12.8455 37.8257L12.8539 37.8145ZM11.9632 37.4526C12.2433 37.5872 12.5486 37.7135 12.8455 37.8341C12.5486 37.7051 12.2545 37.5788 11.9632 37.4526ZM11.0136 34.7453L10.9464 34.8603L11.0136 34.7481L11.7027 35.1493L11.0136 34.7453ZM10.0445 36.4286L9.64117 36.1789L10.0445 36.4314C10.3246 35.932 10.5571 35.5336 10.826 35.0707C10.5599 35.5196 10.333 35.9152 10.0445 36.4174V36.4286ZM9.27145 35.932C9.15661 35.8535 9.04457 35.7777 8.93253 35.6964L8.71966 35.5449C8.92973 35.702 9.1454 35.8507 9.36388 35.9965L9.27145 35.932ZM7.81494 34.8463C7.969 34.9754 8.12585 35.0988 8.2855 35.2194C8.12585 35.0848 7.9662 34.9613 7.81494 34.8351V34.8463ZM3.98322 30.5792C4.16248 30.8598 4.35015 31.1179 4.54342 31.3788C4.34735 31.1179 4.16248 30.8514 3.98322 30.5792ZM0.876953 21.6018C0.876953 21.6299 0.876953 21.6579 0.876953 21.686V21.6018ZM1.69483 25.7875C1.77886 26.0569 1.87223 26.3234 1.97493 26.5871C1.8713 26.3121 1.77886 26.0456 1.69483 25.7763V25.7875ZM3.02529 9.4318L3.14013 9.25225C3.09812 9.30275 3.06171 9.36167 3.02529 9.42058V9.4318ZM10.7391 3.19531C11.0192 3.69187 11.2489 4.08463 11.515 4.54192C11.2489 4.0678 11.0248 3.68065 10.7391 3.18409V3.19531ZM11.5794 4.65133L11.7055 4.87016L11.5794 4.65133ZM27.0604 1.31005C27.2873 1.39982 27.5141 1.4896 27.7382 1.59059C27.5113 1.47557 27.2929 1.3858 27.0576 1.29883L27.0604 1.31005ZM28.6233 1.98616C28.9034 2.12643 29.2003 2.2667 29.486 2.42661C29.2003 2.26109 28.9118 2.10399 28.6205 1.97494L28.6233 1.98616ZM28.6233 2.88671L28.5253 2.83901L28.8922 3.02979C28.8044 2.97368 28.7157 2.92224 28.6261 2.87549L28.6233 2.88671ZM29.0967 3.1392C29.0295 3.10273 28.9622 3.06345 28.8922 3.02979C28.9958 3.08309 29.0967 3.1392 29.1975 3.19531C28.8474 3.80689 28.5841 4.25857 28.2312 4.87857C28.5869 4.26979 28.8446 3.81531 29.2003 3.19531L29.0967 3.1392ZM29.6905 2.54445C29.9706 2.70155 30.2507 2.86427 30.5308 3.0354C30.2507 2.85304 29.9734 2.69033 29.6933 2.53322L29.6905 2.54445ZM30.724 3.16445C31.0602 3.38327 31.3907 3.61051 31.7156 3.84336C31.3935 3.59648 31.063 3.36924 30.7268 3.15323L30.724 3.16445ZM31.7156 3.84336C31.9088 3.98644 32.0993 4.12391 32.2898 4.28101C32.1021 4.11829 31.9116 3.97241 31.7184 3.83214L31.7156 3.84336ZM30.486 3.96961C30.4215 3.92472 30.3571 3.88544 30.2927 3.84336L29.895 3.59368L30.2339 3.80689C30.3487 3.87703 30.4607 3.94997 30.5728 4.02572L30.7941 4.17721C30.9229 4.26418 31.0546 4.35676 31.1806 4.45775C31.3066 4.55875 31.4075 4.62328 31.5195 4.70744L31.5587 4.7383C31.682 4.83088 31.7996 4.92346 31.92 5.01884C32.0209 5.0974 32.1189 5.17875 32.2142 5.26011L32.4942 5.50418C32.5783 5.57432 32.6623 5.65007 32.7435 5.72301L32.7911 5.76509L33.0712 6.01197L33.3513 6.27568C33.4802 6.40193 33.6034 6.52817 33.7295 6.65722C33.8555 6.78627 33.9507 6.89007 34.0572 7.0079C34.0672 7.01653 34.0766 7.02591 34.0852 7.03596C34.172 7.13134 34.2617 7.22953 34.3457 7.3165L34.6006 7.61107C34.7406 7.7794 34.8807 7.95053 35.0151 8.12166C35.1075 8.23669 35.1944 8.35171 35.2952 8.46954L35.396 8.6042C35.7434 9.07364 36.0701 9.55805 36.3764 10.0574C34.8907 7.61148 32.8794 5.52795 30.4888 3.95839L30.486 3.96961ZM36.9618 9.51316L36.9198 9.44864C36.9283 9.46206 36.9358 9.47613 36.9422 9.49072C37.015 9.60013 37.0822 9.71235 37.1466 9.82457C37.1663 9.85543 37.1831 9.88629 37.1999 9.91715C37.2783 10.0462 37.3539 10.1781 37.4267 10.3127C37.2839 10.0266 37.1242 9.76004 36.9646 9.50194L36.9618 9.51316ZM3.0337 28.9801C3.08131 29.0699 3.12893 29.1625 3.17935 29.2607C3.12893 29.1597 3.08131 29.0699 3.0337 28.9801ZM2.12618 28.9801C2.171 29.0699 2.22142 29.1625 2.26903 29.2607L2.12618 28.9801ZM2.27744 27.3754C2.38667 27.656 2.50431 27.9113 2.63036 28.175C2.50711 27.9141 2.38947 27.6335 2.27744 27.3754ZM1.40634 27.3754C1.42034 27.4091 1.43434 27.4399 1.44555 27.4736C1.43154 27.4399 1.41754 27.4091 1.40634 27.3754Z" fill="white"/>
<path d="M39.9338 19.6863C39.9338 19.6105 39.9338 19.5376 39.9338 19.4619C39.9338 19.3861 39.9338 19.3973 39.9338 19.3637C39.9338 19.2346 39.9338 19.1028 39.9198 18.9709V18.8222C39.9198 18.7689 39.9198 18.7128 39.9198 18.6595C39.9198 18.6062 39.9198 18.5276 39.9058 18.4631C39.8917 18.3986 39.8917 18.2948 39.8861 18.2106C39.8805 18.1265 39.8721 18.0619 39.8637 17.989C39.8469 17.8094 39.8273 17.6327 39.8049 17.456L39.7713 17.2063C39.7237 16.8556 39.6649 16.5077 39.5976 16.1626C39.5836 16.1009 39.5696 16.0364 39.5584 15.9719C39.5472 15.9074 39.5248 15.812 39.5052 15.7306C39.4856 15.6493 39.4716 15.5679 39.452 15.4865C39.4165 15.3276 39.3773 15.1677 39.3344 15.0068C39.2559 14.701 39.1719 14.4008 39.0795 14.1035C38.9525 13.6976 38.8152 13.2964 38.6677 12.8999C38.6369 12.8242 38.6089 12.7456 38.5781 12.6727C38.5473 12.5997 38.5193 12.5212 38.4857 12.4454C38.452 12.3697 38.4268 12.2996 38.396 12.2266C38.3652 12.1537 38.3036 12.0078 38.256 11.9012C38.1346 11.6319 38.0086 11.3653 37.8779 11.1016C37.7462 10.8211 37.5978 10.5658 37.4577 10.3021C37.3849 10.1674 37.3093 10.0356 37.2308 9.90652C37.214 9.87566 37.1972 9.8448 37.1776 9.81394C37.1132 9.70172 37.046 9.5895 36.9731 9.48009C36.9668 9.4655 36.9593 9.45143 36.9507 9.43801L36.8835 9.33421L36.7267 9.08733L36.609 8.91339C36.5502 8.82362 36.4942 8.73665 36.4326 8.64968C36.4326 8.63004 36.4073 8.6104 36.3933 8.59357C36.3065 8.46733 36.2169 8.34108 36.1132 8.21764L36.0992 8.198V8.18398L36.074 8.1447L35.8976 7.91185L35.8696 7.87538L35.7379 7.70425L35.6343 7.57239C35.5895 7.51628 35.5475 7.46017 35.5026 7.40687L35.343 7.2161C35.287 7.14316 35.2281 7.07583 35.1665 7.00569C35.1049 6.93555 35.0489 6.86823 34.9873 6.80089C34.9256 6.73356 34.8668 6.66062 34.8052 6.59329L34.7912 6.57646L34.5979 6.36605L34.5839 6.35202C34.5279 6.2903 34.4663 6.22858 34.4075 6.16686L34.3851 6.14442L34.2142 5.96487L34.175 5.92559C34.0769 5.8246 33.9761 5.72641 33.8753 5.63103L33.7548 5.516L33.7352 5.49636L33.7044 5.46831L33.5644 5.33926L33.3207 5.11482L33.2423 5.04469L33.0854 4.90441L33.0434 4.87075L32.9173 4.76134L32.8501 4.70523L32.6625 4.54532L32.3207 4.26477C32.1303 4.11608 31.9398 3.9702 31.7465 3.82712C31.4216 3.59427 31.0911 3.36703 30.755 3.14821L30.5505 3.01916C30.2704 2.84802 29.9903 2.68531 29.7102 2.5282L29.5002 2.41038C29.2201 2.25888 28.94 2.1102 28.6375 1.96992L28.419 1.86332L28.1977 1.76232L27.9764 1.66413L27.7524 1.56874C27.5283 1.47336 27.3014 1.38358 27.0745 1.2882L26.8897 1.21806C26.646 1.13109 26.3995 1.04412 26.153 0.962767L25.9485 0.898243L25.8925 0.881411L25.6852 0.816887L25.4472 0.749555C25.3687 0.727111 25.2903 0.70186 25.2091 0.682222L24.971 0.620507L24.7637 0.567203L24.6825 0.547562L24.492 0.502674L24.0579 0.40729L23.6826 0.33435L23.5173 0.30349C23.3492 0.271695 23.1812 0.24364 23.0131 0.219326L22.775 0.182854C22.3941 0.129551 22.0076 0.0874699 21.6183 0.05661L21.3213 0.034166L21.0412 0.017334H20.7612H20.5875H20.327H19.6716H19.4307H19.2206H19.0414C18.8453 0.017334 18.6492 0.0369734 18.456 0.0538061L18.0834 0.0846661L17.8622 0.10711L17.3916 0.163218L17.1731 0.194078L16.8678 0.238966L16.5877 0.286658C16.4813 0.306296 16.372 0.323127 16.2656 0.34557L16.0499 0.387654C15.8175 0.435347 15.585 0.485843 15.3553 0.539146C15.0752 0.609282 14.7727 0.685031 14.4842 0.769195L14.2041 0.847747L13.8904 0.945935L13.6103 1.04132L13.3302 1.13951L13.0501 1.24331L12.77 1.34992L12.4899 1.46214C12.3022 1.53508 12.1174 1.61363 11.9297 1.69499C11.6496 1.81843 11.3891 1.94187 11.123 2.07372C10.9438 2.1635 10.7645 2.25888 10.588 2.35427L10.3248 2.49454L10.0671 2.64323C9.98024 2.69373 9.89901 2.73861 9.81498 2.79192L9.56289 2.94341C9.47606 2.99672 9.39203 3.04721 9.30801 3.10332C9.22398 3.15943 9.15115 3.20151 9.07553 3.25482L9.03911 3.27445C8.96629 3.32776 8.88786 3.37825 8.81224 3.42875L8.56855 3.59708C8.33047 3.7626 8.09519 3.93654 7.86551 4.11328C7.69745 4.24233 7.5294 4.37419 7.36414 4.50885C7.19888 4.64351 6.95519 4.85111 6.75633 5.02785L6.49304 5.26912L6.27736 5.47111L6.05608 5.68152L5.85442 5.88351L5.64435 6.09673L5.24101 6.52596C5.10376 6.67745 4.96091 6.82895 4.84047 6.98044C4.72002 7.13194 4.59398 7.26098 4.47354 7.4209C4.15983 7.80805 3.862 8.20548 3.58003 8.61321C3.5016 8.72823 3.42318 8.84326 3.34755 8.96108L3.28313 9.05366C3.24392 9.11258 3.20751 9.1743 3.17109 9.23321L3.05625 9.41276C2.8938 9.67647 2.73414 9.94299 2.58289 10.2123C2.53527 10.2965 2.48766 10.3778 2.44284 10.462L2.29719 10.7425L2.15714 11.0231C2.02269 11.2896 1.89385 11.5561 1.77341 11.8282C1.71459 11.9601 1.65857 12.0892 1.60255 12.221L1.47651 12.524C1.47651 12.5577 1.4513 12.5885 1.44009 12.6222C1.33366 12.8859 1.23562 13.1524 1.14319 13.4217L1.07317 13.6181C1.01995 13.778 0.966731 13.9379 0.919115 14.0978L0.854694 14.3111C0.835087 14.3812 0.812679 14.4513 0.793072 14.5243L0.725848 14.7627L0.61661 15.1807C0.611724 15.2082 0.605178 15.2354 0.597006 15.2621C0.571797 15.3687 0.546586 15.4781 0.524178 15.5875C0.50177 15.6969 0.459759 15.8681 0.43175 16.0112C0.40374 16.1542 0.389735 16.2188 0.370128 16.3254C0.370128 16.3787 0.350521 16.4348 0.339317 16.4937C0.328113 16.5526 0.316908 16.634 0.302903 16.7069C0.288899 16.7798 0.274894 16.8808 0.26369 16.9678C0.252486 17.0548 0.23848 17.1249 0.227276 17.2035C0.207669 17.3522 0.188063 17.5009 0.171258 17.6495L0.123642 17.8151C0.109637 17.9161 0.101234 18.017 0.092831 18.118C0.0844281 18.219 0.0676237 18.3986 0.0592208 18.522C0.0508179 18.6455 0.0424145 18.7409 0.0368125 18.8531C0.0368125 19.0242 0.0172053 19.1953 0.0144043 19.3693C0.0144043 19.4422 0.0144043 19.5124 0.0144043 19.5853C0.0144043 19.7284 0.0144043 19.8658 0.0144043 20.0145C0.0144043 20.1632 0.0144043 20.2951 0.0144043 20.4438C0.0144043 20.5167 0.0144043 20.5868 0.0144043 20.6598C0.0144043 20.8337 0.0144048 21.0048 0.0368125 21.176C0.0368125 21.2882 0.036813 21.3976 0.0592208 21.507C0.0816285 21.6164 0.0788262 21.7876 0.092831 21.911C0.106836 22.0344 0.109637 22.113 0.123642 22.214C0.123642 22.2645 0.123641 22.315 0.140447 22.3627C0.157253 22.5142 0.176859 22.6629 0.196465 22.8087C0.196465 22.8901 0.218874 22.9687 0.232879 23.0444C0.246884 23.1202 0.258088 23.2211 0.272093 23.3053C0.286097 23.3895 0.297303 23.4484 0.308507 23.5185C0.31971 23.5887 0.330914 23.6335 0.339317 23.6868C0.358924 23.7935 0.381332 23.8973 0.400939 24.0011C0.420546 24.1049 0.45976 24.2816 0.493371 24.4247C0.526983 24.5678 0.540986 24.6435 0.566195 24.7501C0.566195 24.7782 0.580197 24.8034 0.585799 24.8315L0.695037 25.2495L0.762262 25.4879C0.781868 25.5609 0.801475 25.631 0.823883 25.7012C0.830623 25.7315 0.839038 25.7615 0.849091 25.7909C0.849091 25.833 0.874299 25.8723 0.888304 25.9144C0.941522 26.0855 0.997545 26.2566 1.05356 26.4278C1.1628 26.7532 1.28044 27.073 1.40928 27.39C1.40928 27.4237 1.43449 27.4546 1.4457 27.4882L1.57174 27.7912C1.62776 27.9231 1.68378 28.0521 1.7426 28.184C1.86304 28.4645 1.99188 28.7226 2.12633 28.9891L2.26638 29.2697C2.31399 29.3623 2.36161 29.4548 2.41203 29.5502C2.46245 29.6456 2.50446 29.7157 2.55208 29.7999C2.70333 30.0805 2.86299 30.3357 3.02544 30.5995C3.09827 30.7201 3.17669 30.8407 3.25232 30.9586L3.31674 31.0511C3.39237 31.169 3.47079 31.284 3.54922 31.399C3.83492 31.8049 4.13276 32.2023 4.44273 32.5913C4.56317 32.74 4.68361 32.8719 4.80966 33.0318C4.9357 33.1917 5.07295 33.3348 5.2102 33.4863L5.61354 33.9155L5.82361 34.1287L6.02528 34.3307L6.24655 34.5411L6.46223 34.7431L6.72552 34.9844C6.92439 35.1611 7.12886 35.3322 7.33333 35.5034C7.5378 35.6745 7.66664 35.7699 7.8347 35.8989C8.06438 36.0757 8.29966 36.2496 8.53774 36.4151L8.78143 36.5835C8.85705 36.634 8.93548 36.6845 9.0083 36.7378L9.04472 36.7574C9.12034 36.8107 9.19877 36.8612 9.27719 36.9089C9.35562 36.9566 9.44525 37.0155 9.53208 37.0688C9.69734 37.1698 9.8654 37.2708 10.0363 37.369L10.2939 37.5177L10.5572 37.658C10.7337 37.7533 10.913 37.8459 11.0922 37.9385C11.3583 38.0704 11.6272 38.1938 11.8989 38.3172C12.081 38.3986 12.2658 38.4771 12.4591 38.5501L12.7392 38.6623L13.0193 38.7689L13.2994 38.8727L13.5795 38.9709L13.8596 39.0663L14.1733 39.1645L14.4534 39.243C14.7335 39.3272 15.0332 39.4029 15.3245 39.4731C15.5542 39.5264 15.7866 39.5769 16.0191 39.6246L16.2348 39.6666C16.3412 39.6891 16.4505 39.7059 16.5569 39.7256L16.837 39.7733L17.1423 39.8181L17.3608 39.849L17.8313 39.9051L18.0526 39.9276L18.4251 39.9584C18.6184 39.9752 18.8145 39.9865 19.0105 39.9949H19.1898H19.3999H19.6408H20.2962H20.5567H20.7303H21.0104L21.2905 39.9781L21.5874 39.9556C21.9768 39.9248 22.3633 39.8827 22.7442 39.8294L22.9823 39.7929C23.1504 39.7686 23.3184 39.7405 23.4865 39.7087L23.6518 39.6779L24.0271 39.6049L24.4612 39.5095L24.6517 39.4647L24.7329 39.445L24.9402 39.3917L25.1783 39.33L25.4164 39.2627L25.6544 39.1953L25.8617 39.1308L25.9177 39.114L26.1222 39.0494C26.3687 38.9681 26.6152 38.8811 26.8589 38.7942L27.0437 38.724C27.2706 38.6342 27.4975 38.5445 27.7216 38.4435L27.9456 38.3481L28.1669 38.2499L28.3882 38.1489L28.6067 38.0423C28.8868 37.902 29.1837 37.7617 29.4694 37.6018L29.6794 37.484C29.9595 37.3269 30.2396 37.1642 30.5197 36.9931L30.7242 36.864C31.0603 36.6452 31.3908 36.4179 31.7157 36.1851C31.909 36.042 32.0995 35.9046 32.2899 35.7474L32.6316 35.4669L32.8193 35.307C32.979 35.1751 33.1358 35.0264 33.2899 34.8974L33.5336 34.673L33.6736 34.5439C33.7296 34.4934 33.7884 34.4373 33.8445 34.3812C33.9453 34.2858 34.0461 34.1876 34.1442 34.0866C34.2422 33.9856 34.301 33.9267 34.3766 33.8454C34.4523 33.764 34.4971 33.7219 34.5531 33.6602C34.752 33.447 34.948 33.2282 35.1357 33.0065C35.1973 32.9364 35.2561 32.8691 35.3122 32.7961C35.3682 32.7232 35.3682 32.7344 35.3934 32.7007C35.4186 32.6671 35.4466 32.639 35.4718 32.6053C35.497 32.5717 35.5587 32.4959 35.6035 32.4398L35.7071 32.308L35.8388 32.1368C35.9256 32.0246 36.0124 31.9096 36.0936 31.7946C36.1749 31.6795 36.2757 31.5449 36.3737 31.4186C36.567 31.1381 36.7519 30.8576 36.9339 30.577C37.116 30.2965 37.2785 30.0159 37.4409 29.7129C37.6034 29.41 37.721 29.1827 37.861 28.9134C38.0011 28.6441 38.1187 28.3832 38.2392 28.1138C38.2868 28.0072 38.3344 27.8978 38.3792 27.7884C38.424 27.679 38.4408 27.6425 38.4689 27.5696L38.5613 27.3423C38.5921 27.2694 38.6201 27.1908 38.6509 27.1151C38.8003 26.7186 38.9375 26.3174 39.0627 25.9116C39.1551 25.6142 39.2391 25.314 39.3175 25.0082C39.3605 24.8492 39.3997 24.6893 39.4352 24.5285C39.4548 24.4471 39.4716 24.3658 39.4884 24.2844C39.5948 23.7981 39.6835 23.3062 39.7545 22.8087L39.7881 22.5591C39.8105 22.3823 39.8301 22.2028 39.8469 22.026C39.8469 21.9531 39.8609 21.8773 39.8693 21.8044C39.8777 21.7315 39.8833 21.6361 39.8889 21.5519C39.8946 21.4677 39.8889 21.42 39.9029 21.3555C39.917 21.291 39.9029 21.2461 39.9029 21.1928V21.0441C39.9029 20.9123 39.903 20.7832 39.917 20.6514C39.917 20.6177 39.917 20.5868 39.917 20.5532C39.917 20.5195 39.917 20.4045 39.917 20.3287C39.917 20.253 39.917 20.1211 39.917 20.0145C39.917 19.9079 39.9338 19.7789 39.9338 19.6863ZM39.1271 20.0005V20.281C39.1271 20.441 39.1271 20.6037 39.1131 20.7664C39.1131 20.8029 39.1131 20.8421 39.1131 20.8786C39.1131 20.9572 39.1131 21.0329 39.1131 21.1115C39.1131 21.2686 39.0935 21.4229 39.0795 21.58C39.0795 21.6894 39.0627 21.796 39.0515 21.9054C39.0515 21.9587 39.0515 22.0176 39.0347 22.0709C39.0178 22.1242 39.0346 22.2168 39.0094 22.2897L38.9758 22.5703C38.9618 22.6769 38.945 22.7835 38.9282 22.8873C38.9114 22.9911 38.9086 23.022 38.8974 23.0893C38.8862 23.1566 38.8722 23.2604 38.8526 23.3474L38.8022 23.6279C38.4525 25.4723 37.8314 27.2545 36.9591 28.9162C36.8975 29.034 36.8359 29.149 36.7715 29.2641C36.1609 28.9134 35.7127 28.6497 35.0909 28.299C34.9536 28.529 34.8248 28.7591 34.6932 28.9891C35.301 29.3454 35.7547 29.6091 36.3737 29.957C34.89 32.4034 32.8806 34.4878 30.4917 36.0588L30.2984 36.1851L29.9007 36.4348C29.5478 35.8232 29.2845 35.3743 28.9372 34.7515C28.7019 34.8834 28.475 35.0152 28.2453 35.1527C28.6011 35.7615 28.8587 36.216 29.2145 36.836L29.108 36.8921C29.0408 36.9285 28.9736 36.9678 28.9036 37.0015C28.8335 37.0351 28.7243 37.0997 28.6235 37.1446L28.5254 37.1922L28.4778 37.2147C28.2957 37.3101 28.1109 37.397 27.9176 37.4812H27.8924C27.6991 37.5738 27.5031 37.6579 27.3042 37.7393L27.0633 37.8375L26.8224 37.9329L26.6236 38.0114L26.3435 38.1124L26.1166 38.191L25.6993 38.3284C25.4444 38.4098 25.1895 38.4828 24.9318 38.5529C24.7609 38.6006 24.5873 38.6455 24.4108 38.6847L24.1671 38.7408C22.9193 39.0251 21.6457 39.1802 20.3662 39.2037V37.2624H19.5679V39.2037C17.2629 39.1587 14.9852 38.6948 12.8456 37.8347C12.5487 37.7141 12.2546 37.5878 11.9633 37.4532L11.7392 37.3465C11.5684 37.2652 11.4003 37.181 11.2323 37.0941C11.0642 37.0071 10.9102 36.9257 10.7505 36.836H10.7365C11.0166 36.3394 11.2463 35.9466 11.5124 35.4893C11.532 35.4529 11.5516 35.4164 11.574 35.3799L11.7 35.1611L11.011 34.7599L10.9438 34.8721C10.9018 34.9423 10.8625 35.0096 10.8261 35.0769C10.546 35.5398 10.3332 35.9382 10.0447 36.4376L9.64132 36.1851C9.5825 36.143 9.52088 36.1037 9.45926 36.0645L9.36403 36.0027C9.14555 35.8568 8.92988 35.7222 8.7198 35.5511L8.50413 35.394L8.39489 35.3098L8.28565 35.2256C8.126 35.105 7.96915 34.9816 7.81509 34.8525L7.68064 34.7403L7.5434 34.6253C7.36974 34.4794 7.19888 34.3279 7.03082 34.1708L6.81515 33.9716C6.6723 33.8369 6.53505 33.6911 6.3922 33.5592C6.30817 33.475 6.22695 33.3909 6.14572 33.3039C6.02247 33.1777 5.90204 33.0514 5.78439 32.9196L5.74238 32.8747L5.58832 32.6979C5.50149 32.5997 5.41467 32.5015 5.33344 32.4005L5.13457 32.1677C5.10376 32.1256 5.07014 32.0863 5.03653 32.0443L4.88528 31.8423C4.76484 31.688 4.6472 31.5337 4.53236 31.3766C4.3391 31.1157 4.15143 30.8491 3.97217 30.577C3.83492 30.3666 3.69207 30.1562 3.56883 29.9402L5.24941 28.9751C5.11496 28.7451 4.98332 28.5094 4.85167 28.2794C4.23826 28.6328 3.78731 28.8994 3.17109 29.25C3.12068 29.1603 3.07306 29.0677 3.02544 28.9695C2.88259 28.703 2.74534 28.4365 2.6221 28.1643C2.49886 27.8922 2.37842 27.6369 2.26918 27.3648C2.15994 27.0927 2.05351 26.8346 1.95267 26.5652C1.85184 26.2959 1.76781 26.035 1.67258 25.7657C1.61936 25.603 1.57174 25.4374 1.52412 25.2691L1.4541 25.0222C1.43169 24.9381 1.40929 24.8539 1.38968 24.7726C1.37007 24.6912 1.34486 24.6042 1.32525 24.5201L1.26644 24.2732C1.14506 23.7458 1.0517 23.2109 0.98634 22.6685C0.966733 22.531 0.949926 22.3879 0.933121 22.2533C0.933121 22.2084 0.933121 22.1607 0.933121 22.1158C0.916315 21.9671 0.899508 21.8184 0.888304 21.6697C0.888304 21.6417 0.888304 21.6136 0.888304 21.5856L0.871499 21.3499C0.837887 20.9029 0.821084 20.4512 0.821084 19.9949C0.821084 19.5385 0.837887 19.0869 0.871499 18.6399C0.871499 18.5613 0.871498 18.4828 0.888304 18.4042C0.888304 18.3761 0.888304 18.3481 0.888304 18.32C0.888304 18.1713 0.916315 18.0227 0.933121 17.874C0.933121 17.7702 0.95553 17.6664 0.969535 17.5626C0.983539 17.4588 0.991942 17.4027 1.00035 17.3213C1.07504 16.7808 1.1684 16.2459 1.28044 15.7166L1.33926 15.4697C1.35887 15.3855 1.37848 15.3042 1.40368 15.2172C1.42889 15.1302 1.4457 15.0517 1.46811 14.9675C1.49051 14.8834 1.51292 14.802 1.53813 14.7207C1.58295 14.5551 1.63336 14.3868 1.68658 14.2241C1.77061 13.9548 1.86398 13.6883 1.96668 13.4245C1.4541 14.8048 1.62776 14.1708 2.28319 12.625C2.39243 12.3444 2.51006 12.0891 2.63611 11.8254C2.76215 11.5617 2.8966 11.2868 3.03945 11.0203C3.08706 10.9305 3.13468 10.8379 3.18509 10.7397C3.79851 11.0904 4.24946 11.3569 4.86567 11.7104C4.99732 11.4804 5.12897 11.2447 5.26341 11.0147L3.58284 10.0496C3.71448 9.83358 3.86293 9.62317 3.98617 9.41276C4.16543 9.13222 4.3531 8.87411 4.54636 8.61321C4.6612 8.4561 4.77885 8.299 4.89929 8.1475L5.04494 7.96515C5.07855 7.92307 5.11216 7.88379 5.14297 7.84171L5.34184 7.60886C5.42307 7.50786 5.5099 7.40967 5.59673 7.31148L5.75078 7.13474C5.88149 6.98886 6.01594 6.84578 6.15412 6.70551C6.23535 6.61854 6.31658 6.53438 6.40061 6.45021C6.54065 6.30994 6.6807 6.16967 6.82355 6.03781L7.03923 5.83863C7.11205 5.7713 7.18207 5.70677 7.2577 5.64225L7.5518 5.38415L7.72546 5.23826C7.94674 5.0531 8.17081 4.87075 8.40329 4.69962C8.43877 4.66782 8.47519 4.63977 8.51253 4.61545L8.6974 4.47799L8.72541 4.45835C8.79543 4.40505 8.86825 4.35455 8.94108 4.30686C9.11194 4.18061 9.2884 4.06278 9.46766 3.94495C9.52928 3.90287 9.5909 3.8664 9.64972 3.82432L10.0531 3.57183C10.3332 4.0712 10.5656 4.46957 10.8345 4.93247L10.9522 5.13727L11.0194 5.24949L11.7084 4.84831L11.5824 4.62948C11.56 4.59301 11.5404 4.55373 11.5208 4.52007C11.2547 4.06278 11.025 3.67844 10.7449 3.17346C10.9074 3.08368 11.0726 2.99391 11.2407 2.90974C11.4087 2.82558 11.5768 2.73861 11.7476 2.65726L11.9717 2.55065C12.2518 2.41599 12.5571 2.28974 12.854 2.16911C14.9936 1.30902 17.2713 0.845148 19.5763 0.800055V2.74142H20.3746V0.800055H20.3914C21.6633 0.826755 22.9292 0.981837 24.1699 1.26295L24.4136 1.31906C24.5901 1.35834 24.7637 1.40322 24.9346 1.45091C25.1923 1.51825 25.4472 1.59399 25.7021 1.67535C25.8421 1.71743 25.9822 1.76232 26.1194 1.81282L26.3463 1.89137L26.6264 1.99237L26.8252 2.07092L27.0661 2.1663L27.307 2.2645C27.5059 2.34585 27.7019 2.43002 27.8952 2.5226H27.9204C28.1081 2.60676 28.293 2.69373 28.4806 2.78911L28.5254 2.81156L28.6235 2.85925C28.7131 2.90413 28.8065 2.95183 28.9036 3.00232C28.9736 3.03599 29.0408 3.07527 29.108 3.11174L29.2145 3.16784C28.8587 3.77943 28.6011 4.23391 28.2453 4.85111C28.475 4.98858 28.7019 5.13166 28.9372 5.25229C29.2845 4.6379 29.5478 4.18903 29.9007 3.56902L30.2984 3.81871C30.3629 3.86079 30.4273 3.90007 30.4917 3.94495C32.8806 5.51597 34.89 7.60043 36.3737 10.0468C35.7603 10.3947 35.3066 10.6584 34.6932 11.0147C34.8248 11.2447 34.9536 11.4748 35.0909 11.7048C35.7071 11.3541 36.1553 11.0904 36.7715 10.7397C36.8359 10.8548 36.8975 10.9698 36.9591 11.0876C37.7884 12.6657 38.3901 14.3536 38.7462 16.1009C38.7686 16.1907 38.7854 16.2833 38.8022 16.3815L38.8526 16.662C38.8666 16.749 38.8834 16.836 38.8974 16.9201C38.9114 17.0043 38.917 17.052 38.9282 17.1221C38.9394 17.1922 38.959 17.3325 38.9758 17.4391C38.9926 17.5457 38.9982 17.6271 39.0094 17.7197C39.0206 17.8123 39.0263 17.8656 39.0347 17.9385L39.0515 18.104C39.0515 18.1629 39.0515 18.219 39.0683 18.2723C39.0851 18.3256 39.0683 18.3761 39.0683 18.4295C39.0823 18.5866 39.0935 18.7409 39.1019 18.898C39.1019 18.9765 39.1019 19.0523 39.1019 19.1308C39.1019 19.2094 39.1019 19.2066 39.1019 19.243C39.1019 19.4057 39.1019 19.5685 39.1159 19.7284L39.1271 20.0005Z" fill="white"/>
<path d="M39.9338 19.6863C39.9338 19.6105 39.9338 19.5376 39.9338 19.4619C39.9338 19.3861 39.9338 19.3973 39.9338 19.3637C39.9338 19.2346 39.9338 19.1028 39.9198 18.9709V18.8222C39.9198 18.7689 39.9198 18.7128 39.9198 18.6595C39.9198 18.6062 39.9198 18.5276 39.9058 18.4631C39.8917 18.3986 39.8917 18.2948 39.8861 18.2106C39.8805 18.1265 39.8721 18.0619 39.8637 17.989C39.8469 17.8094 39.8273 17.6327 39.8049 17.456L39.7713 17.2063C39.7237 16.8556 39.6649 16.5077 39.5976 16.1626C39.5836 16.1009 39.5696 16.0364 39.5584 15.9719C39.5472 15.9074 39.5248 15.812 39.5052 15.7306C39.4856 15.6493 39.4716 15.5679 39.452 15.4865C39.4165 15.3276 39.3773 15.1677 39.3344 15.0068C39.2559 14.701 39.1719 14.4008 39.0795 14.1035C38.9525 13.6976 38.8152 13.2964 38.6677 12.8999C38.6369 12.8242 38.6089 12.7456 38.5781 12.6727C38.5473 12.5997 38.5193 12.5212 38.4857 12.4454C38.452 12.3697 38.4268 12.2996 38.396 12.2266C38.3652 12.1537 38.3036 12.0078 38.256 11.9012C38.1346 11.6319 38.0086 11.3653 37.8779 11.1016C37.7462 10.8211 37.5978 10.5658 37.4577 10.3021C37.3849 10.1674 37.3093 10.0356 37.2308 9.90652C37.214 9.87566 37.1972 9.8448 37.1776 9.81394C37.1132 9.70172 37.046 9.5895 36.9731 9.48009C36.9668 9.4655 36.9593 9.45143 36.9507 9.43801L36.8835 9.33421L36.7267 9.08733L36.609 8.91339C36.5502 8.82362 36.4942 8.73665 36.4326 8.64968C36.4326 8.63004 36.4073 8.6104 36.3933 8.59357C36.3065 8.46733 36.2169 8.34108 36.1132 8.21764L36.0992 8.198V8.18398L36.074 8.1447L35.8976 7.91185L35.8696 7.87538L35.7379 7.70425L35.6343 7.57239C35.5895 7.51628 35.5475 7.46017 35.5026 7.40687L35.343 7.2161C35.287 7.14316 35.2281 7.07583 35.1665 7.00569C35.1049 6.93555 35.0489 6.86823 34.9873 6.80089C34.9256 6.73356 34.8668 6.66062 34.8052 6.59329L34.7912 6.57646L34.5979 6.36605L34.5839 6.35202C34.5279 6.2903 34.4663 6.22858 34.4075 6.16686L34.3851 6.14442L34.2142 5.96487L34.175 5.92559C34.0769 5.8246 33.9761 5.72641 33.8753 5.63103L33.7548 5.516L33.7352 5.49636L33.7044 5.46831L33.5644 5.33926L33.3207 5.11482L33.2423 5.04469L33.0854 4.90441L33.0434 4.87075L32.9173 4.76134L32.8501 4.70523L32.6625 4.54532L32.3207 4.26477C32.1303 4.11608 31.9398 3.9702 31.7465 3.82712C31.4216 3.59427 31.0911 3.36703 30.755 3.14821L30.5505 3.01916C30.2704 2.84802 29.9903 2.68531 29.7102 2.5282L29.5002 2.41038C29.2201 2.25888 28.94 2.1102 28.6375 1.96992L28.419 1.86332L28.1977 1.76232L27.9764 1.66413L27.7524 1.56874C27.5283 1.47336 27.3014 1.38358 27.0745 1.2882L26.8897 1.21806C26.646 1.13109 26.3995 1.04412 26.153 0.962767L25.9485 0.898243L25.8925 0.881411L25.6852 0.816887L25.4472 0.749555C25.3687 0.727111 25.2903 0.70186 25.2091 0.682222L24.971 0.620507L24.7637 0.567203L24.6825 0.547562L24.492 0.502674L24.0579 0.40729L23.6826 0.33435L23.5173 0.30349C23.3492 0.271695 23.1812 0.24364 23.0131 0.219326L22.775 0.182854C22.3941 0.129551 22.0076 0.0874699 21.6183 0.05661L21.3213 0.034166L21.0412 0.017334H20.7612H20.5875H20.327H19.6716H19.4307H19.2206H19.0414C18.8453 0.017334 18.6492 0.0369734 18.456 0.0538061L18.0834 0.0846661L17.8622 0.10711L17.3916 0.163218L17.1731 0.194078L16.8678 0.238966L16.5877 0.286658C16.4813 0.306296 16.372 0.323127 16.2656 0.34557L16.0499 0.387654C15.8175 0.435347 15.585 0.485843 15.3553 0.539146C15.0752 0.609282 14.7727 0.685031 14.4842 0.769195L14.2041 0.847747L13.8904 0.945935L13.6103 1.04132L13.3302 1.13951L13.0501 1.24331L12.77 1.34992L12.4899 1.46214C12.3022 1.53508 12.1174 1.61363 11.9297 1.69499C11.6496 1.81843 11.3891 1.94187 11.123 2.07372C10.9438 2.1635 10.7645 2.25888 10.588 2.35427L10.3248 2.49454L10.0671 2.64323C9.98024 2.69373 9.89901 2.73861 9.81498 2.79192L9.56289 2.94341C9.47606 2.99672 9.39203 3.04721 9.30801 3.10332C9.22398 3.15943 9.15115 3.20151 9.07553 3.25482L9.03911 3.27445C8.96629 3.32776 8.88786 3.37825 8.81224 3.42875L8.56855 3.59708C8.33047 3.7626 8.09519 3.93654 7.86551 4.11328C7.69745 4.24233 7.5294 4.37419 7.36414 4.50885C7.19888 4.64351 6.95519 4.85111 6.75633 5.02785L6.49304 5.26912L6.27736 5.47111L6.05608 5.68152L5.85442 5.88351L5.64435 6.09673L5.24101 6.52596C5.10376 6.67745 4.96091 6.82895 4.84047 6.98044C4.72002 7.13194 4.59398 7.26098 4.47354 7.4209C4.15983 7.80805 3.862 8.20548 3.58003 8.61321C3.5016 8.72823 3.42318 8.84326 3.34755 8.96108L3.28313 9.05366C3.24392 9.11258 3.20751 9.1743 3.17109 9.23321L3.05625 9.41276C2.8938 9.67647 2.73414 9.94299 2.58289 10.2123C2.53527 10.2965 2.48766 10.3778 2.44284 10.462L2.29719 10.7425L2.15714 11.0231C2.02269 11.2896 1.89385 11.5561 1.77341 11.8282C1.71459 11.9601 1.65857 12.0892 1.60255 12.221L1.47651 12.524C1.47651 12.5577 1.4513 12.5885 1.44009 12.6222C1.33366 12.8859 1.23562 13.1524 1.14319 13.4217L1.07317 13.6181C1.01995 13.778 0.966731 13.9379 0.919115 14.0978L0.854694 14.3111C0.835087 14.3812 0.812679 14.4513 0.793072 14.5243L0.725848 14.7627L0.61661 15.1807C0.611724 15.2082 0.605178 15.2354 0.597006 15.2621C0.571797 15.3687 0.546586 15.4781 0.524178 15.5875C0.50177 15.6969 0.459759 15.8681 0.43175 16.0112C0.40374 16.1542 0.389735 16.2188 0.370128 16.3254C0.370128 16.3787 0.350521 16.4348 0.339317 16.4937C0.328113 16.5526 0.316908 16.634 0.302903 16.7069C0.288899 16.7798 0.274894 16.8808 0.26369 16.9678C0.252486 17.0548 0.23848 17.1249 0.227276 17.2035C0.207669 17.3522 0.188063 17.5009 0.171258 17.6495L0.123642 17.8151C0.109637 17.9161 0.101234 18.017 0.092831 18.118C0.0844281 18.219 0.0676237 18.3986 0.0592208 18.522C0.0508179 18.6455 0.0424145 18.7409 0.0368125 18.8531C0.0368125 19.0242 0.0172053 19.1953 0.0144043 19.3693C0.0144043 19.4422 0.0144043 19.5124 0.0144043 19.5853C0.0144043 19.7284 0.0144043 19.8658 0.0144043 20.0145C0.0144043 20.1632 0.0144043 20.2951 0.0144043 20.4438C0.0144043 20.5167 0.0144043 20.5868 0.0144043 20.6598C0.0144043 20.8337 0.0144048 21.0048 0.0368125 21.176C0.0368125 21.2882 0.036813 21.3976 0.0592208 21.507C0.0816285 21.6164 0.0788262 21.7876 0.092831 21.911C0.106836 22.0344 0.109637 22.113 0.123642 22.214C0.123642 22.2645 0.123641 22.315 0.140447 22.3627C0.157253 22.5142 0.176859 22.6629 0.196465 22.8087C0.196465 22.8901 0.218874 22.9687 0.232879 23.0444C0.246884 23.1202 0.258088 23.2211 0.272093 23.3053C0.286097 23.3895 0.297303 23.4484 0.308507 23.5185C0.31971 23.5887 0.330914 23.6335 0.339317 23.6868C0.358924 23.7935 0.381332 23.8973 0.400939 24.0011C0.420546 24.1049 0.45976 24.2816 0.493371 24.4247C0.526983 24.5678 0.540986 24.6435 0.566195 24.7501C0.566195 24.7782 0.580197 24.8034 0.585799 24.8315L0.695037 25.2495L0.762262 25.4879C0.781868 25.5609 0.801475 25.631 0.823883 25.7012C0.830623 25.7315 0.839038 25.7615 0.849091 25.7909C0.849091 25.833 0.874299 25.8723 0.888304 25.9144C0.941522 26.0855 0.997545 26.2566 1.05356 26.4278C1.1628 26.7532 1.28044 27.073 1.40928 27.39C1.40928 27.4237 1.43449 27.4546 1.4457 27.4882L1.57174 27.7912C1.62776 27.9231 1.68378 28.0521 1.7426 28.184C1.86304 28.4645 1.99188 28.7226 2.12633 28.9891L2.26638 29.2697C2.31399 29.3623 2.36161 29.4548 2.41203 29.5502C2.46245 29.6456 2.50446 29.7157 2.55208 29.7999C2.70333 30.0805 2.86299 30.3357 3.02544 30.5995C3.09827 30.7201 3.17669 30.8407 3.25232 30.9586L3.31674 31.0511C3.39237 31.169 3.47079 31.284 3.54922 31.399C3.83492 31.8049 4.13276 32.2023 4.44273 32.5913C4.56317 32.74 4.68361 32.8719 4.80966 33.0318C4.9357 33.1917 5.07295 33.3348 5.2102 33.4863L5.61354 33.9155L5.82361 34.1287L6.02528 34.3307L6.24655 34.5411L6.46223 34.7431L6.72552 34.9844C6.92439 35.1611 7.12886 35.3322 7.33333 35.5034C7.5378 35.6745 7.66664 35.7699 7.8347 35.8989C8.06438 36.0757 8.29966 36.2496 8.53774 36.4151L8.78143 36.5835C8.85705 36.634 8.93548 36.6845 9.0083 36.7378L9.04472 36.7574C9.12034 36.8107 9.19877 36.8612 9.27719 36.9089C9.35562 36.9566 9.44525 37.0155 9.53208 37.0688C9.69734 37.1698 9.8654 37.2708 10.0363 37.369L10.2939 37.5177L10.5572 37.658C10.7337 37.7533 10.913 37.8459 11.0922 37.9385C11.3583 38.0704 11.6272 38.1938 11.8989 38.3172C12.081 38.3986 12.2658 38.4771 12.4591 38.5501L12.7392 38.6623L13.0193 38.7689L13.2994 38.8727L13.5795 38.9709L13.8596 39.0663L14.1733 39.1645L14.4534 39.243C14.7335 39.3272 15.0332 39.4029 15.3245 39.4731C15.5542 39.5264 15.7866 39.5769 16.0191 39.6246L16.2348 39.6666C16.3412 39.6891 16.4505 39.7059 16.5569 39.7256L16.837 39.7733L17.1423 39.8181L17.3608 39.849L17.8313 39.9051L18.0526 39.9276L18.4251 39.9584C18.6184 39.9752 18.8145 39.9865 19.0105 39.9949H19.1898H19.3999H19.6408H20.2962H20.5567H20.7303H21.0104L21.2905 39.9781L21.5874 39.9556C21.9768 39.9248 22.3633 39.8827 22.7442 39.8294L22.9823 39.7929C23.1504 39.7686 23.3184 39.7405 23.4865 39.7087L23.6518 39.6779L24.0271 39.6049L24.4612 39.5095L24.6517 39.4647L24.7329 39.445L24.9402 39.3917L25.1783 39.33L25.4164 39.2627L25.6544 39.1953L25.8617 39.1308L25.9177 39.114L26.1222 39.0494C26.3687 38.9681 26.6152 38.8811 26.8589 38.7942L27.0437 38.724C27.2706 38.6342 27.4975 38.5445 27.7216 38.4435L27.9456 38.3481L28.1669 38.2499L28.3882 38.1489L28.6067 38.0423C28.8868 37.902 29.1837 37.7617 29.4694 37.6018L29.6794 37.484C29.9595 37.3269 30.2396 37.1642 30.5197 36.9931L30.7242 36.864C31.0603 36.6452 31.3908 36.4179 31.7157 36.1851C31.909 36.042 32.0995 35.9046 32.2899 35.7474L32.6316 35.4669L32.8193 35.307C32.979 35.1751 33.1358 35.0264 33.2899 34.8974L33.5336 34.673L33.6736 34.5439C33.7296 34.4934 33.7884 34.4373 33.8445 34.3812C33.9453 34.2858 34.0461 34.1876 34.1442 34.0866C34.2422 33.9856 34.301 33.9267 34.3766 33.8454C34.4523 33.764 34.4971 33.7219 34.5531 33.6602C34.752 33.447 34.948 33.2282 35.1357 33.0065C35.1973 32.9364 35.2561 32.8691 35.3122 32.7961C35.3682 32.7232 35.3682 32.7344 35.3934 32.7007C35.4186 32.6671 35.4466 32.639 35.4718 32.6053C35.497 32.5717 35.5587 32.4959 35.6035 32.4398L35.7071 32.308L35.8388 32.1368C35.9256 32.0246 36.0124 31.9096 36.0936 31.7946C36.1749 31.6795 36.2757 31.5449 36.3737 31.4186C36.567 31.1381 36.7519 30.8576 36.9339 30.577C37.116 30.2965 37.2785 30.0159 37.4409 29.7129C37.6034 29.41 37.721 29.1827 37.861 28.9134C38.0011 28.6441 38.1187 28.3832 38.2392 28.1138C38.2868 28.0072 38.3344 27.8978 38.3792 27.7884C38.424 27.679 38.4408 27.6425 38.4689 27.5696L38.5613 27.3423C38.5921 27.2694 38.6201 27.1908 38.6509 27.1151C38.8003 26.7186 38.9375 26.3174 39.0627 25.9116C39.1551 25.6142 39.2391 25.314 39.3175 25.0082C39.3605 24.8492 39.3997 24.6893 39.4352 24.5285C39.4548 24.4471 39.4716 24.3658 39.4884 24.2844C39.5948 23.7981 39.6835 23.3062 39.7545 22.8087L39.7881 22.5591C39.8105 22.3823 39.8301 22.2028 39.8469 22.026C39.8469 21.9531 39.8609 21.8773 39.8693 21.8044C39.8777 21.7315 39.8833 21.6361 39.8889 21.5519C39.8946 21.4677 39.8889 21.42 39.9029 21.3555C39.917 21.291 39.9029 21.2461 39.9029 21.1928V21.0441C39.9029 20.9123 39.903 20.7832 39.917 20.6514C39.917 20.6177 39.917 20.5868 39.917 20.5532C39.917 20.5195 39.917 20.4045 39.917 20.3287C39.917 20.253 39.917 20.1211 39.917 20.0145C39.917 19.9079 39.9338 19.7789 39.9338 19.6863ZM39.1271 20.0005V20.281C39.1271 20.441 39.1271 20.6037 39.1131 20.7664C39.1131 20.8029 39.1131 20.8421 39.1131 20.8786C39.1131 20.9572 39.1131 21.0329 39.1131 21.1115C39.1131 21.2686 39.0935 21.4229 39.0795 21.58C39.0795 21.6894 39.0627 21.796 39.0515 21.9054C39.0515 21.9587 39.0515 22.0176 39.0347 22.0709C39.0178 22.1242 39.0346 22.2168 39.0094 22.2897L38.9758 22.5703C38.9618 22.6769 38.945 22.7835 38.9282 22.8873C38.9114 22.9911 38.9086 23.022 38.8974 23.0893C38.8862 23.1566 38.8722 23.2604 38.8526 23.3474L38.8022 23.6279C38.4525 25.4723 37.8314 27.2545 36.9591 28.9162C36.8975 29.034 36.8359 29.149 36.7715 29.2641C36.1609 28.9134 35.7127 28.6497 35.0909 28.299C34.9536 28.529 34.8248 28.7591 34.6932 28.9891C35.301 29.3454 35.7547 29.6091 36.3737 29.957C34.89 32.4034 32.8806 34.4878 30.4917 36.0588L30.2984 36.1851L29.9007 36.4348C29.5478 35.8232 29.2845 35.3743 28.9372 34.7515C28.7019 34.8834 28.475 35.0152 28.2453 35.1527C28.6011 35.7615 28.8587 36.216 29.2145 36.836L29.108 36.8921C29.0408 36.9285 28.9736 36.9678 28.9036 37.0015C28.8335 37.0351 28.7243 37.0997 28.6235 37.1446L28.5254 37.1922L28.4778 37.2147C28.2957 37.3101 28.1109 37.397 27.9176 37.4812H27.8924C27.6991 37.5738 27.5031 37.6579 27.3042 37.7393L27.0633 37.8375L26.8224 37.9329L26.6236 38.0114L26.3435 38.1124L26.1166 38.191L25.6993 38.3284C25.4444 38.4098 25.1895 38.4828 24.9318 38.5529C24.7609 38.6006 24.5873 38.6455 24.4108 38.6847L24.1671 38.7408C22.9193 39.0251 21.6457 39.1802 20.3662 39.2037V37.2624H19.5679V39.2037C17.2629 39.1587 14.9852 38.6948 12.8456 37.8347C12.5487 37.7141 12.2546 37.5878 11.9633 37.4532L11.7392 37.3465C11.5684 37.2652 11.4003 37.181 11.2323 37.0941C11.0642 37.0071 10.9102 36.9257 10.7505 36.836H10.7365C11.0166 36.3394 11.2463 35.9466 11.5124 35.4893C11.532 35.4529 11.5516 35.4164 11.574 35.3799L11.7 35.1611L11.011 34.7599L10.9438 34.8721C10.9018 34.9423 10.8625 35.0096 10.8261 35.0769C10.546 35.5398 10.3332 35.9382 10.0447 36.4376L9.64132 36.1851C9.5825 36.143 9.52088 36.1037 9.45926 36.0645L9.36403 36.0027C9.14555 35.8568 8.92988 35.7222 8.7198 35.5511L8.50413 35.394L8.39489 35.3098L8.28565 35.2256C8.126 35.105 7.96915 34.9816 7.81509 34.8525L7.68064 34.7403L7.5434 34.6253C7.36974 34.4794 7.19888 34.3279 7.03082 34.1708L6.81515 33.9716C6.6723 33.8369 6.53505 33.6911 6.3922 33.5592C6.30817 33.475 6.22695 33.3909 6.14572 33.3039C6.02247 33.1777 5.90204 33.0514 5.78439 32.9196L5.74238 32.8747L5.58832 32.6979C5.50149 32.5997 5.41467 32.5015 5.33344 32.4005L5.13457 32.1677C5.10376 32.1256 5.07014 32.0863 5.03653 32.0443L4.88528 31.8423C4.76484 31.688 4.6472 31.5337 4.53236 31.3766C4.3391 31.1157 4.15143 30.8491 3.97217 30.577C3.83492 30.3666 3.69207 30.1562 3.56883 29.9402L5.24941 28.9751C5.11496 28.7451 4.98332 28.5094 4.85167 28.2794C4.23826 28.6328 3.78731 28.8994 3.17109 29.25C3.12068 29.1603 3.07306 29.0677 3.02544 28.9695C2.88259 28.703 2.74534 28.4365 2.6221 28.1643C2.49886 27.8922 2.37842 27.6369 2.26918 27.3648C2.15994 27.0927 2.05351 26.8346 1.95267 26.5652C1.85184 26.2959 1.76781 26.035 1.67258 25.7657C1.61936 25.603 1.57174 25.4374 1.52412 25.2691L1.4541 25.0222C1.43169 24.9381 1.40929 24.8539 1.38968 24.7726C1.37007 24.6912 1.34486 24.6042 1.32525 24.5201L1.26644 24.2732C1.14506 23.7458 1.0517 23.2109 0.98634 22.6685C0.966733 22.531 0.949926 22.3879 0.933121 22.2533C0.933121 22.2084 0.933121 22.1607 0.933121 22.1158C0.916315 21.9671 0.899508 21.8184 0.888304 21.6697C0.888304 21.6417 0.888304 21.6136 0.888304 21.5856L0.871499 21.3499C0.837887 20.9029 0.821084 20.4512 0.821084 19.9949C0.821084 19.5385 0.837887 19.0869 0.871499 18.6399C0.871499 18.5613 0.871498 18.4828 0.888304 18.4042C0.888304 18.3761 0.888304 18.3481 0.888304 18.32C0.888304 18.1713 0.916315 18.0227 0.933121 17.874C0.933121 17.7702 0.95553 17.6664 0.969535 17.5626C0.983539 17.4588 0.991942 17.4027 1.00035 17.3213C1.07504 16.7808 1.1684 16.2459 1.28044 15.7166L1.33926 15.4697C1.35887 15.3855 1.37848 15.3042 1.40368 15.2172C1.42889 15.1302 1.4457 15.0517 1.46811 14.9675C1.49051 14.8834 1.51292 14.802 1.53813 14.7207C1.58295 14.5551 1.63336 14.3868 1.68658 14.2241C1.77061 13.9548 1.86398 13.6883 1.96668 13.4245C1.4541 14.8048 1.62776 14.1708 2.28319 12.625C2.39243 12.3444 2.51006 12.0891 2.63611 11.8254C2.76215 11.5617 2.8966 11.2868 3.03945 11.0203C3.08706 10.9305 3.13468 10.8379 3.18509 10.7397C3.79851 11.0904 4.24946 11.3569 4.86567 11.7104C4.99732 11.4804 5.12897 11.2447 5.26341 11.0147L3.58284 10.0496C3.71448 9.83358 3.86293 9.62317 3.98617 9.41276C4.16543 9.13222 4.3531 8.87411 4.54636 8.61321C4.6612 8.4561 4.77885 8.299 4.89929 8.1475L5.04494 7.96515C5.07855 7.92307 5.11216 7.88379 5.14297 7.84171L5.34184 7.60886C5.42307 7.50786 5.5099 7.40967 5.59673 7.31148L5.75078 7.13474C5.88149 6.98886 6.01594 6.84578 6.15412 6.70551C6.23535 6.61854 6.31658 6.53438 6.40061 6.45021C6.54065 6.30994 6.6807 6.16967 6.82355 6.03781L7.03923 5.83863C7.11205 5.7713 7.18207 5.70677 7.2577 5.64225L7.5518 5.38415L7.72546 5.23826C7.94674 5.0531 8.17081 4.87075 8.40329 4.69962C8.43877 4.66782 8.47519 4.63977 8.51253 4.61545L8.6974 4.47799L8.72541 4.45835C8.79543 4.40505 8.86825 4.35455 8.94108 4.30686C9.11194 4.18061 9.2884 4.06278 9.46766 3.94495C9.52928 3.90287 9.5909 3.8664 9.64972 3.82432L10.0531 3.57183C10.3332 4.0712 10.5656 4.46957 10.8345 4.93247L10.9522 5.13727L11.0194 5.24949L11.7084 4.84831L11.5824 4.62948C11.56 4.59301 11.5404 4.55373 11.5208 4.52007C11.2547 4.06278 11.025 3.67844 10.7449 3.17346C10.9074 3.08368 11.0726 2.99391 11.2407 2.90974C11.4087 2.82558 11.5768 2.73861 11.7476 2.65726L11.9717 2.55065C12.2518 2.41599 12.5571 2.28974 12.854 2.16911C14.9936 1.30902 17.2713 0.845148 19.5763 0.800055V2.74142H20.3746V0.800055H20.3914C21.6633 0.826755 22.9292 0.981837 24.1699 1.26295L24.4136 1.31906C24.5901 1.35834 24.7637 1.40322 24.9346 1.45091C25.1923 1.51825 25.4472 1.59399 25.7021 1.67535C25.8421 1.71743 25.9822 1.76232 26.1194 1.81282L26.3463 1.89137L26.6264 1.99237L26.8252 2.07092L27.0661 2.1663L27.307 2.2645C27.5059 2.34585 27.7019 2.43002 27.8952 2.5226H27.9204C28.1081 2.60676 28.293 2.69373 28.4806 2.78911L28.5254 2.81156L28.6235 2.85925C28.7131 2.90413 28.8065 2.95183 28.9036 3.00232C28.9736 3.03599 29.0408 3.07527 29.108 3.11174L29.2145 3.16784C28.8587 3.77943 28.6011 4.23391 28.2453 4.85111C28.475 4.98858 28.7019 5.13166 28.9372 5.25229C29.2845 4.6379 29.5478 4.18903 29.9007 3.56902L30.2984 3.81871C30.3629 3.86079 30.4273 3.90007 30.4917 3.94495C32.8806 5.51597 34.89 7.60043 36.3737 10.0468C35.7603 10.3947 35.3066 10.6584 34.6932 11.0147C34.8248 11.2447 34.9536 11.4748 35.0909 11.7048C35.7071 11.3541 36.1553 11.0904 36.7715 10.7397C36.8359 10.8548 36.8975 10.9698 36.9591 11.0876C37.7884 12.6657 38.3901 14.3536 38.7462 16.1009C38.7686 16.1907 38.7854 16.2833 38.8022 16.3815L38.8526 16.662C38.8666 16.749 38.8834 16.836 38.8974 16.9201C38.9114 17.0043 38.917 17.052 38.9282 17.1221C38.9394 17.1922 38.959 17.3325 38.9758 17.4391C38.9926 17.5457 38.9982 17.6271 39.0094 17.7197C39.0206 17.8123 39.0263 17.8656 39.0347 17.9385L39.0515 18.104C39.0515 18.1629 39.0515 18.219 39.0683 18.2723C39.0851 18.3256 39.0683 18.3761 39.0683 18.4295C39.0823 18.5866 39.0935 18.7409 39.1019 18.898C39.1019 18.9765 39.1019 19.0523 39.1019 19.1308C39.1019 19.2094 39.1019 19.2066 39.1019 19.243C39.1019 19.4057 39.1019 19.5685 39.1159 19.7284L39.1271 20.0005Z" fill="white"/>
<path d="M20.2901 39.997H20.5142H20.6123L21.0044 39.983H21.1528H21.3153L21.5114 39.9689L21.7634 39.9493L21.9847 39.9269C22.164 39.91 22.3404 39.8904 22.5169 39.8679L22.7662 39.8343C23.1163 39.7866 23.4636 39.7277 23.8082 39.6603L23.9986 39.6211L24.2395 39.5678L24.4832 39.5145C24.6419 39.4789 24.8016 39.4396 24.9622 39.3966C25.2675 39.3181 25.5672 39.2339 25.8641 39.1413C26.2693 39.0142 26.6698 38.8767 27.0657 38.7289L27.2926 38.6392L27.5194 38.5466L27.7379 38.4568L28.0628 38.3165C28.3317 38.1968 28.5978 38.0706 28.8611 37.9378C29.1412 37.8059 29.3961 37.6573 29.6594 37.517C29.7938 37.444 29.9255 37.3683 30.0543 37.2897L30.1467 37.2364C30.2588 37.1719 30.3708 37.1046 30.4801 37.0316L30.5221 37.0092L30.6257 36.9419L30.8722 36.7848L31.0458 36.6669C31.1355 36.608 31.2223 36.5519 31.3091 36.4902L31.3652 36.4509C31.4912 36.3639 31.6172 36.2742 31.7405 36.1704L31.7601 36.1563H31.7741L31.8133 36.1311L32.0458 35.9544L32.0822 35.9263L32.2531 35.7944L32.3847 35.6906L32.55 35.5588L32.7404 35.3989C32.8133 35.3428 32.8805 35.2838 32.9505 35.2221L33.155 35.0426L33.3623 34.8602L33.3791 34.8462L33.5891 34.6526L33.6031 34.6386C33.6647 34.5825 33.7264 34.5208 33.788 34.4619L33.8104 34.4394L33.9897 34.2683L34.0289 34.229C34.1297 34.1308 34.2277 34.0298 34.323 33.9288L34.4378 33.8082L34.4574 33.7886L34.4854 33.7577L34.6143 33.6174L34.8384 33.3733C34.8632 33.3485 34.8865 33.3223 34.9084 33.2948C34.956 33.2443 35.0008 33.191 35.0484 33.1377L35.082 33.0956C35.1185 33.0563 35.1577 33.0114 35.1913 32.9694L35.2473 32.902L35.407 32.7141C35.4994 32.599 35.5918 32.4868 35.687 32.3718C35.8355 32.181 35.9811 31.9903 36.124 31.7967C36.3565 31.4713 36.5834 31.1402 36.8018 30.8036L36.9307 30.5988C37.1015 30.3182 37.264 30.0377 37.4208 29.7571L37.5385 29.5467C37.6897 29.2662 37.8382 28.9856 37.9782 28.6826L38.0847 28.4638L38.1855 28.2422C38.2191 28.1693 38.2499 28.0935 38.2835 28.0206C38.3172 27.9476 38.348 27.8719 38.3788 27.7961C38.474 27.5717 38.5636 27.3444 38.6589 27.1172C38.6813 27.0555 38.7037 26.9938 38.7289 26.932C38.8157 26.688 38.9026 26.4411 38.9838 26.1942C39.0034 26.1269 39.0258 26.0596 39.0482 25.9894L39.065 25.9333C39.0874 25.866 39.107 25.7958 39.1294 25.7257L39.1967 25.4872C39.2191 25.4087 39.2443 25.3301 39.2639 25.2488C39.2835 25.1674 39.3059 25.0917 39.3255 25.0103C39.3451 24.929 39.3619 24.8729 39.3787 24.8027C39.3955 24.7326 39.3927 24.7466 39.3983 24.7214C39.4039 24.6961 39.4291 24.5923 39.4431 24.5306C39.4768 24.3847 39.5076 24.25 39.5384 24.0957C39.5692 23.9414 39.5888 23.8461 39.6112 23.7198C39.6112 23.6637 39.6336 23.6076 39.642 23.5543C39.6738 23.386 39.7018 23.2176 39.726 23.0493C39.74 22.9708 39.7512 22.8922 39.7624 22.8109C39.8157 22.4293 39.8577 22.0422 39.8885 21.6522C39.8885 21.554 39.9053 21.453 39.9109 21.3548C39.9165 21.2566 39.9109 21.1641 39.9277 21.0743C39.9445 20.9845 39.9277 20.8891 39.9277 20.7937C39.9277 20.6983 39.9277 20.6787 39.9277 20.6198C39.9277 20.5609 39.9277 20.4459 39.9277 20.3589C39.9277 20.2719 39.9277 20.1345 39.9277 20.0222C39.9277 19.91 39.9277 19.809 39.9277 19.7024C39.9277 19.5958 39.9277 19.5425 39.9277 19.4611C39.9277 19.3798 39.9277 19.3209 39.9277 19.2507V19.0712C39.9277 18.8748 39.9081 18.6784 39.8913 18.4849C39.8913 18.3586 39.8717 18.2352 39.8605 18.1117C39.8605 18.036 39.8465 17.963 39.8381 17.8901C39.8213 17.733 39.8017 17.5759 39.7821 17.4188C39.7821 17.3458 39.7625 17.2729 39.7513 17.2C39.74 17.127 39.7232 16.9952 39.7064 16.8942C39.6896 16.7932 39.6756 16.7034 39.6588 16.6136C39.642 16.5239 39.6224 16.3976 39.6 16.291L39.558 16.075C39.5104 15.8421 39.4599 15.6093 39.4067 15.3792C39.3367 15.0987 39.2611 14.7957 39.177 14.5067L39.0986 14.2262C39.0678 14.1224 39.0342 14.0186 39.0006 13.912C38.967 13.8054 38.939 13.7212 38.9054 13.6314C38.8717 13.5417 38.8409 13.4407 38.8073 13.3509C38.7737 13.2611 38.7401 13.1601 38.7037 13.0703C38.6673 12.9806 38.6337 12.8824 38.5972 12.7898C38.5608 12.6972 38.5244 12.6046 38.4852 12.5093C38.4124 12.3213 38.334 12.1361 38.2527 11.9482C38.1295 11.6676 38.0062 11.4067 37.8746 11.1402C37.785 10.9607 37.6897 10.7811 37.5945 10.6044L37.4545 10.3407C37.404 10.2565 37.3564 10.1667 37.306 10.0826C37.2556 9.99559 37.2108 9.91422 37.1576 9.83006L37.0063 9.57757C36.9531 9.4906 36.9027 9.40644 36.8466 9.32228C36.7906 9.23811 36.7486 9.16517 36.6954 9.08942C36.6954 9.08942 36.6814 9.06418 36.6758 9.05296C36.6226 8.98001 36.5722 8.90146 36.5217 8.82572L36.3537 8.58164C36.1884 8.34318 36.0148 8.10752 35.8383 7.87748C35.7095 7.70915 35.5778 7.54082 35.4434 7.3753C35.3089 7.20978 35.1016 6.9657 34.9252 6.76652L34.6843 6.50281L34.4826 6.28679L34.2726 6.06516L34.0709 5.86316L33.858 5.65276L33.4295 5.24878C33.2782 5.11131 33.127 4.96823 32.9757 4.8476C32.8245 4.72696 32.6956 4.60072 32.536 4.48008C32.1494 4.16587 31.7526 3.86756 31.3456 3.58515C31.2307 3.50659 31.1159 3.42804 30.9982 3.35229L30.9058 3.28777L30.7265 3.17555L30.5473 3.06053C30.284 2.89781 30.0179 2.7379 29.749 2.58641L29.4997 2.44614L29.2196 2.30025L28.9395 2.15998C28.6594 2.02532 28.4073 1.89627 28.1356 1.77564L27.7435 1.6045L27.441 1.47826L27.343 1.44179C27.0797 1.33518 26.8136 1.23699 26.5447 1.14441L26.3486 1.07427C26.189 1.02097 26.0293 0.967667 25.8697 0.919975L25.6568 0.855451L25.4439 0.793731L25.2058 0.726398L24.7885 0.616986L24.7073 0.59735L24.3824 0.524406C24.2423 0.490741 24.1023 0.45988 23.9594 0.431826L23.6457 0.37011L23.4776 0.33925L23.2648 0.302778L23.0043 0.263502L22.769 0.22703L22.3236 0.170922L22.1752 0.15409C22.0744 0.140063 21.9735 0.131646 21.8727 0.12323C21.7719 0.114813 21.5926 0.0979822 21.4694 0.0895659C21.3461 0.0811495 21.2509 0.0727327 21.1388 0.0671218C20.968 0.0671218 20.7971 0.0474832 20.6235 0.0446777H20.4078H19.9792H19.5507H19.335C19.1614 0.0446777 18.9905 0.0446782 18.8196 0.0671218C18.7076 0.0671218 18.5984 0.0671223 18.4891 0.0895659L18.0858 0.12323C17.9849 0.12323 17.8841 0.140063 17.7833 0.15409C17.7329 0.15409 17.6824 0.154089 17.6348 0.170922L17.1895 0.22703L16.9542 0.263502L16.6937 0.302778L16.4808 0.33925L16.3128 0.37011L15.9991 0.431826C15.8562 0.45988 15.719 0.490741 15.5761 0.524406L15.2512 0.59735L15.17 0.616986L14.7526 0.726398L14.5146 0.793731L14.3017 0.855451C14.2714 0.862201 14.2414 0.87063 14.212 0.880699L14.0888 0.919975L13.5762 1.08549C13.2513 1.19491 12.932 1.31274 12.6155 1.44179L12.5175 1.47826L12.215 1.6045L11.8228 1.77564C11.5427 1.89627 11.285 2.02532 11.0189 2.15998L10.7388 2.30025C10.6464 2.34794 10.554 2.39564 10.4588 2.44614L10.2095 2.58641C9.92937 2.7379 9.67449 2.89781 9.41119 3.06053C9.29075 3.13347 9.17031 3.21202 9.05267 3.28777L8.96024 3.35229C8.8426 3.42804 8.72776 3.50659 8.61292 3.58515C8.20771 3.8713 7.81091 4.16961 7.42251 4.48008C7.27406 4.60072 7.14241 4.72135 6.98276 4.8476C6.8231 4.97384 6.68025 5.11131 6.529 5.24878L6.10045 5.65276L5.88758 5.86316L5.68591 6.06516L5.47584 6.28679L5.27417 6.50281L5.03329 6.76652C4.85682 6.9657 4.68596 7.1705 4.51511 7.3753C4.34425 7.5801 4.24902 7.70915 4.12017 7.87748C3.94371 8.10752 3.77005 8.34318 3.60479 8.58164L3.43674 8.82572C3.38632 8.90146 3.3359 8.98001 3.28268 9.05296C3.28268 9.06698 3.28268 9.0782 3.26308 9.08942C3.20986 9.16517 3.15944 9.24372 3.11182 9.32228C3.06421 9.40083 3.00539 9.4906 2.95217 9.57757C2.85134 9.74309 2.7505 9.91142 2.65247 10.0826C2.60205 10.1667 2.55443 10.2565 2.50401 10.3407L2.36397 10.6044C2.26873 10.7811 2.1763 10.9607 2.08387 11.1402C1.95222 11.4067 1.82898 11.676 1.70574 11.9482C1.62451 12.1305 1.54609 12.3157 1.47326 12.5093C1.43405 12.6018 1.39763 12.6944 1.36122 12.7898C1.32481 12.8852 1.28839 12.9778 1.25478 13.0703C1.22117 13.1629 1.18476 13.2583 1.15115 13.3509C1.11754 13.4435 1.08393 13.5417 1.05312 13.6314C1.02231 13.7212 0.988691 13.8222 0.95788 13.912C0.92707 14.0018 0.89066 14.1224 0.859849 14.2262L0.781423 14.5067C0.697394 14.7873 0.621765 15.0875 0.551741 15.3792C0.498523 15.6093 0.448108 15.8421 0.400491 16.075L0.358474 16.291C0.336066 16.3976 0.319263 16.507 0.299656 16.6136C0.280049 16.7202 0.266045 16.8044 0.25204 16.8942C0.238036 16.9839 0.221229 17.099 0.207224 17.2C0.193219 17.301 0.184816 17.3458 0.176413 17.4188C0.156806 17.5759 0.1372 17.733 0.120395 17.8901C0.120395 17.963 0.103588 18.036 0.0979864 18.1117C0.0979864 18.2352 0.0755785 18.3586 0.0671756 18.4849C0.0503698 18.6784 0.0391646 18.8748 0.0307617 19.0712V19.2507C0.0307617 19.3209 0.0307617 19.391 0.0307617 19.4611C0.0307617 19.5313 0.0307617 19.6239 0.0307617 19.7024C0.0307617 19.781 0.0307617 19.9156 0.0307617 20.0222C0.0307617 20.1288 0.0307617 20.2467 0.0307617 20.3589C0.0307617 20.4711 0.0307617 20.5328 0.0307617 20.6198C0.0307617 20.7068 0.0307617 20.7348 0.0307617 20.7937C0.0307617 20.8526 0.0307617 20.9817 0.0307617 21.0743C0.0307617 21.1669 0.030761 21.265 0.0475668 21.3548C0.0643726 21.4446 0.0615722 21.554 0.0699751 21.6522C0.100786 22.0422 0.142799 22.4293 0.196018 22.8109C0.196018 22.8922 0.218427 22.9708 0.232432 23.0493C0.256707 23.2176 0.284717 23.386 0.316461 23.5543C0.316461 23.6076 0.336068 23.6637 0.347272 23.7198C0.36968 23.8461 0.394887 23.9723 0.420096 24.0957C0.445304 24.2192 0.481716 24.3763 0.515327 24.5306C0.529332 24.5923 0.543338 24.6568 0.560144 24.7214C0.57695 24.7859 0.560146 24.7747 0.579753 24.8027C0.59936 24.8308 0.613365 24.9402 0.632972 25.0103C0.652579 25.0805 0.674982 25.1702 0.694589 25.2488L0.761814 25.4872L0.829038 25.7257C0.851446 25.7958 0.871052 25.866 0.893459 25.9333L0.910265 25.9894C0.932672 26.0596 0.955079 26.1269 0.974686 26.1942C1.05591 26.4411 1.14274 26.688 1.22957 26.932C1.25478 26.9938 1.27719 27.0555 1.2996 27.1172C1.38923 27.3444 1.47886 27.5717 1.57969 27.7961C1.61051 27.8719 1.64132 27.9448 1.67493 28.0206C1.70854 28.0963 1.73935 28.1693 1.77296 28.2422L1.8738 28.4638L1.98024 28.6826C2.12028 28.9632 2.26033 29.2606 2.41998 29.5467L2.53762 29.7571C2.69448 30.0377 2.85693 30.3182 3.02779 30.5988L3.15664 30.8036C3.37511 31.1402 3.60199 31.4713 3.83447 31.7967C3.97732 31.9903 4.11457 32.181 4.27142 32.3718C4.36105 32.4868 4.45349 32.599 4.55152 32.7141L4.71118 32.902C4.84282 33.0619 4.99127 33.219 5.12011 33.3733L5.34419 33.6174L5.47304 33.7577C5.52346 33.8138 5.57947 33.8727 5.63549 33.9288C5.73072 34.0298 5.82876 34.1308 5.92959 34.229L6.17048 34.4619L6.35534 34.6386C6.56821 34.8378 6.78669 35.0342 7.00797 35.2221C7.07799 35.2838 7.14521 35.3428 7.21804 35.3989C7.24885 35.4269 7.27966 35.455 7.31327 35.4802L7.4085 35.5588L7.57376 35.6906L7.70541 35.7944L7.87626 35.9263C7.9883 36.0133 8.10314 36.1002 8.21798 36.1816C8.33282 36.263 8.46727 36.3639 8.59331 36.4621C8.87341 36.6557 9.15351 36.8409 9.4336 37.0232C9.7137 37.2056 9.9938 37.3683 10.2963 37.531C10.5988 37.6937 10.8257 37.8116 11.0946 37.9518C11.3635 38.0921 11.624 38.2099 11.8928 38.3306L12.2178 38.4708L12.4362 38.5606L12.6631 38.6532L12.89 38.743C13.284 38.8926 13.6845 39.0301 14.0916 39.1554C14.3885 39.2479 14.6882 39.3321 14.9935 39.4107C15.1522 39.4537 15.3119 39.493 15.4725 39.5285L15.7162 39.5818C16.2017 39.6884 16.6928 39.7772 17.1895 39.8483L17.4388 39.882C17.6152 39.9044 17.7945 39.9241 17.9709 39.9409L18.1922 39.9633L18.4443 39.983L18.6404 39.997H18.8028H18.9513L19.3434 40.011H19.4415H19.6655H20.2901V39.997ZM19.9764 39.189H19.6963C19.5367 39.189 19.3742 39.189 19.2118 39.175H19.0997H18.8673C18.7104 39.175 18.5563 39.1554 18.3995 39.1413C18.2903 39.1413 18.1838 39.1245 18.0746 39.1133C18.0214 39.1133 17.9625 39.1133 17.9093 39.0964C17.8561 39.0796 17.7637 39.0964 17.6908 39.0712L17.4108 39.0375L17.0942 38.9898L16.8926 38.959C16.8085 38.945 16.7217 38.9337 16.6349 38.9141L16.3548 38.8636C14.5133 38.5134 12.734 37.8913 11.075 37.0176L10.7276 36.8297C11.0778 36.2181 11.3411 35.7692 11.6912 35.1464C11.4615 35.0089 11.2318 34.8799 11.0021 34.748C10.6464 35.3568 10.3831 35.8113 10.0358 36.4313C7.59335 34.9452 5.51222 32.9326 3.94371 30.5398C3.89889 30.4753 3.85968 30.4108 3.81767 30.3463L3.56838 29.9479C4.17899 29.5944 4.62715 29.3307 5.24896 28.9828C5.11732 28.7472 4.98567 28.5199 4.84842 28.2899C4.24061 28.6462 3.78685 28.9043 3.16784 29.2606C3.14823 29.2241 3.12863 29.1904 3.11182 29.154C3.09502 29.1175 3.0362 29.0193 3.00259 28.9492C2.96897 28.879 2.90455 28.7696 2.85974 28.6686C2.84293 28.635 2.82613 28.6041 2.81212 28.5704C2.80299 28.5554 2.79548 28.5394 2.78971 28.5227C2.69448 28.3404 2.60765 28.1552 2.52362 27.9616C2.5221 27.9533 2.5221 27.9447 2.52362 27.9364C2.43119 27.7428 2.34716 27.5464 2.26593 27.3473C2.23232 27.2687 2.19871 27.1873 2.1679 27.106C2.13709 27.0246 2.10348 26.9461 2.07267 26.8647C2.04186 26.7834 2.01945 26.7329 1.99424 26.6655L1.89341 26.385C1.8654 26.3092 1.84018 26.2335 1.81498 26.1577C1.76736 26.0203 1.72255 25.8772 1.67773 25.7397C1.5965 25.4844 1.52368 25.2291 1.45365 24.971C1.40604 24.7999 1.36122 24.626 1.32201 24.4492C1.3024 24.3679 1.2856 24.2865 1.26599 24.2052C0.982208 22.9554 0.827339 21.6797 0.803827 20.3982H2.7421V19.5986H0.803827C0.848848 17.2899 1.31198 15.0086 2.1707 12.8656C2.29114 12.5682 2.41718 12.2736 2.55163 11.9818C2.58804 11.9061 2.62166 11.8303 2.65807 11.7574C2.7393 11.5863 2.82332 11.4179 2.91015 11.2496C2.99698 11.0813 3.07821 10.927 3.16784 10.7671C3.66361 11.0476 4.05575 11.2777 4.51231 11.5442L4.62154 11.6059L4.84002 11.7322C4.97727 11.4993 5.12012 11.2721 5.24056 11.042L5.12852 10.9747L4.92405 10.8569C4.46189 10.5763 4.06415 10.3631 3.56558 10.0741C3.64961 9.93948 3.73084 9.79359 3.81767 9.67015C3.85968 9.61124 3.89889 9.54952 3.93811 9.4878C3.96024 9.45707 3.98081 9.42523 3.99973 9.39241C4.14538 9.17359 4.27983 8.95757 4.45068 8.74716C4.5011 8.67422 4.55432 8.60409 4.60754 8.53114C4.66076 8.4582 4.66076 8.4582 4.69157 8.42173L4.7756 8.31232C4.89604 8.15241 5.01928 7.9953 5.14813 7.841L5.26016 7.70634L5.375 7.56887C5.52065 7.39494 5.6719 7.2238 5.82876 7.05548C5.89318 6.98254 5.96041 6.9124 6.02763 6.83946C6.16208 6.69638 6.30773 6.55892 6.43937 6.41584L6.69426 6.16896C6.8203 6.04552 6.94635 5.92489 7.07799 5.80706L7.12561 5.75095L7.30207 5.59665C7.4001 5.50968 7.49814 5.42271 7.59897 5.34135L7.83145 5.14217L7.95469 5.04398L8.13675 4.8981C8.29081 4.77746 8.44486 4.65963 8.60172 4.54461C8.86221 4.35103 9.12829 4.16307 9.39999 3.98352C9.61006 3.84605 9.82014 3.70297 10.0358 3.57953C10.3859 4.19112 10.6492 4.6428 10.9993 5.2628C11.229 5.12814 11.4643 4.99628 11.694 4.86443C11.3411 4.25004 11.075 3.79836 10.7248 3.18116L11.0049 3.03528C11.271 2.8922 11.5371 2.75474 11.8088 2.6313C12.0805 2.50786 12.3354 2.38722 12.6071 2.27781C12.8788 2.1684 13.1365 2.06179 13.4054 1.9608C13.6743 1.8598 13.9348 1.77564 14.2036 1.68025C14.3661 1.62695 14.5314 1.57926 14.6994 1.53156L14.9459 1.46143L15.1952 1.3969L15.4473 1.33238L15.6938 1.27346C16.2203 1.15189 16.7544 1.05838 17.2959 0.992915L17.7105 0.939615L17.8477 0.925587C17.9962 0.908754 18.1446 0.89192 18.2931 0.880699H18.3771L18.6124 0.863867C19.0586 0.830201 19.5096 0.813366 19.9652 0.813366C20.4209 0.813366 20.8718 0.830201 21.3181 0.863867L21.5534 0.880699H21.6374C21.7859 0.880699 21.9343 0.908754 22.0828 0.925587L22.3937 0.962055L22.6345 0.992915C23.1761 1.06773 23.7101 1.16124 24.2367 1.27346L24.4832 1.33238C24.5672 1.35201 24.6484 1.37165 24.7353 1.3969L24.9846 1.46143L25.231 1.53156C25.3963 1.57645 25.5644 1.62695 25.7268 1.68025C25.9957 1.76442 26.2618 1.85793 26.5251 1.9608C25.147 1.4474 25.78 1.62133 27.3234 2.27781C27.6035 2.38722 27.8584 2.50505 28.1216 2.6313C28.3849 2.75754 28.6594 2.8922 28.9255 3.03528L29.2056 3.18116C28.8555 3.79555 28.5894 4.24723 28.2365 4.86443C28.4662 4.99628 28.7014 5.12814 28.9311 5.2628C29.2812 4.64841 29.5445 4.19673 29.8947 3.57953C30.1103 3.71139 30.3204 3.86008 30.5305 3.98352C30.8106 4.16307 31.0683 4.35103 31.3287 4.54461C31.4856 4.65963 31.6425 4.77746 31.7937 4.8981L31.9758 5.04398L32.099 5.14217L32.3315 5.34135C32.4323 5.42271 32.5304 5.50968 32.6284 5.59665L32.8049 5.75095C32.9505 5.88187 33.0933 6.01653 33.2334 6.15493L33.4883 6.40181C33.6283 6.54209 33.7684 6.68236 33.9 6.82543C33.9673 6.89557 34.0345 6.96851 34.0989 7.04145C34.1633 7.1144 34.2305 7.18453 34.295 7.26028L34.5527 7.55485L34.6983 7.72879C34.8832 7.95042 35.0652 8.17485 35.2361 8.4077C35.2678 8.44324 35.2958 8.47971 35.3201 8.51712L35.4574 8.70228C35.4648 8.71095 35.4714 8.72034 35.477 8.73033C35.5302 8.80046 35.5806 8.87341 35.6282 8.94635C35.7543 9.11748 35.8719 9.29422 35.9895 9.47377C36.0316 9.53549 36.068 9.59721 36.11 9.65613C36.1968 9.79079 36.2781 9.93667 36.3621 10.0601C35.8635 10.3407 35.4658 10.5735 35.0036 10.8428L34.7991 10.9607L34.6871 11.028C34.8187 11.258 34.9504 11.4853 35.0876 11.7181L35.3061 11.5919L35.4154 11.5302C35.8719 11.2496 36.2556 11.0336 36.7598 10.7531C36.8494 10.9158 36.9391 11.0813 37.0231 11.2496C37.1071 11.4179 37.194 11.5863 37.2752 11.7574C37.3116 11.8303 37.3452 11.9061 37.3816 11.9818C37.5161 12.2624 37.6421 12.5682 37.7626 12.8656C38.6213 15.0086 39.0844 17.2899 39.1294 19.5986H37.1912V20.3982H39.1294V20.415C39.1032 21.6907 38.9483 22.9606 38.6673 24.2052C38.6477 24.2865 38.6309 24.3679 38.6113 24.4492C38.572 24.626 38.5272 24.7999 38.4796 24.971C38.4124 25.2291 38.3368 25.4844 38.2555 25.7397C38.2135 25.88 38.1687 26.0203 38.1183 26.1577C38.0931 26.2335 38.0679 26.3092 38.0399 26.385L37.939 26.6655C37.9138 26.7329 37.8858 26.8002 37.8606 26.8647C37.8354 26.9292 37.799 27.0274 37.7654 27.106C37.7318 27.1845 37.7009 27.2687 37.6673 27.3473C37.5861 27.5464 37.5021 27.7428 37.4096 27.9364C37.4112 27.9447 37.4112 27.9533 37.4096 27.9616C37.3256 28.1496 37.2388 28.3348 37.1436 28.5227C37.135 28.5371 37.1275 28.5521 37.1211 28.5676C37.1071 28.6013 37.0903 28.6321 37.0735 28.6658C37.0287 28.7556 36.9811 28.8491 36.9307 28.9464C36.8971 29.0165 36.8578 29.0838 36.8214 29.1512C36.785 29.2185 36.785 29.2213 36.7654 29.2578C36.1548 28.9015 35.7011 28.6434 35.0848 28.2871C34.9476 28.5171 34.8047 28.7444 34.6843 28.98C35.2977 29.3279 35.7459 29.5916 36.3649 29.9451L36.1156 30.3435C36.0736 30.408 36.0344 30.4725 35.9895 30.537C34.421 32.9298 32.3399 34.9424 29.8974 36.4285C29.5501 35.8141 29.2868 35.3596 28.9311 34.7452C28.7014 34.8771 28.4718 35.0061 28.2421 35.1436C28.5922 35.7608 28.8555 36.2096 29.2056 36.8268L28.8583 37.0148C27.2827 37.8454 25.5975 38.4481 23.853 38.8047C23.7633 38.8271 23.6709 38.844 23.5729 38.8608L23.2928 38.9113L23.0351 38.9562L22.8334 38.987L22.5169 39.0347C22.4245 39.0488 22.3292 39.0572 22.2368 39.0684C22.1444 39.0796 22.0912 39.0852 22.0183 39.0936L21.8531 39.1105C21.7943 39.1105 21.7382 39.1105 21.685 39.1273H21.5282C21.3713 39.1413 21.2173 39.1526 21.0604 39.161H20.8279H20.7159C20.5534 39.161 20.391 39.161 20.2313 39.175L19.9764 39.189Z" fill="white"/>
<path d="M50.5994 14.563H55.221V15.3485H51.5517V18.4906H55.1229V19.2761H51.5517V24.382H50.5994V14.563Z" fill="white" stroke="white" stroke-width="0.5" stroke-miterlimit="10"/>
<path d="M57.3215 15.8253C58.2738 14.7985 59.5622 14.2842 61.1868 14.2823C62.5532 14.2674 63.8751 14.7682 64.8897 15.685C65.9503 16.6202 66.4806 17.8845 66.4806 19.478C66.4806 21.0715 65.9503 22.3339 64.8897 23.2653C63.8607 24.1625 62.5426 24.6566 61.1784 24.6566C59.8142 24.6566 58.496 24.1625 57.4671 23.2653C56.4177 22.3302 55.893 21.0696 55.893 19.4836C55.8719 18.1238 56.3849 16.81 57.3215 15.8253ZM58.1758 22.6706C58.9877 23.4448 60.0658 23.8766 61.1868 23.8766C62.3078 23.8766 63.3859 23.4448 64.1978 22.6706C65.0475 21.8682 65.4723 20.8021 65.4723 19.4724C65.4723 18.1426 65.0475 17.0746 64.1978 16.2686C63.3853 15.4956 62.3074 15.0646 61.1868 15.0646C60.0662 15.0646 58.9883 15.4956 58.1758 16.2686C57.7502 16.6815 57.4166 17.1799 57.197 17.7311C56.9773 18.2823 56.8766 18.8738 56.9013 19.4668C56.9013 20.7965 57.3261 21.8645 58.1758 22.6706Z" fill="white" stroke="white" stroke-width="0.5" stroke-miterlimit="10"/>
<path d="M68.9176 15.8253C69.87 14.7985 71.1584 14.2842 72.783 14.2823C74.1494 14.2674 75.4713 14.7682 76.4859 15.685C77.5484 16.6202 78.0787 17.8845 78.0768 19.478C78.0749 21.0715 77.5446 22.3339 76.4859 23.2653C75.4569 24.1625 74.1388 24.6566 72.7746 24.6566C71.4104 24.6566 70.0922 24.1625 69.0633 23.2653C68.0139 22.3302 67.4891 21.0696 67.4891 19.4836C67.4681 18.1238 67.9811 16.81 68.9176 15.8253ZM69.7719 22.6706C70.5838 23.4448 71.6619 23.8766 72.783 23.8766C73.904 23.8766 74.9821 23.4448 75.794 22.6706C76.6418 21.8682 77.0666 20.8021 77.0684 19.4724C77.0703 18.1426 76.6455 17.0746 75.794 16.2686C74.9815 15.4956 73.9036 15.0646 72.783 15.0646C71.6623 15.0646 70.5845 15.4956 69.7719 16.2686C68.9204 17.0746 68.4956 18.1407 68.4975 19.4668C68.4994 20.7928 68.9242 21.8607 69.7719 22.6706Z" fill="white" stroke="white" stroke-width="0.5" stroke-miterlimit="10"/>
<path d="M79.5334 14.563H81.9703C83.6322 14.563 84.8712 14.9632 85.6872 15.7637C86.4513 16.4687 86.982 17.3908 87.2081 18.4064C87.2445 18.586 87.2725 18.7627 87.2921 18.9395C87.3117 19.1162 87.3201 19.2958 87.3201 19.4725C87.3201 19.6493 87.3201 19.7699 87.2977 19.9158C87.2753 20.0617 87.2669 20.1963 87.2501 20.3562C87.0585 21.4123 86.5413 22.3816 85.7712 23.128C84.957 23.964 83.6901 24.382 81.9703 24.382H79.5334V14.563ZM81.8722 23.5965C83.5061 23.5965 84.6545 23.1757 85.3174 22.3341C85.9686 21.5237 86.3199 20.5127 86.3118 19.4725C86.3308 18.9237 86.2361 18.3768 86.0337 17.8664C85.8312 17.3561 85.5253 16.8932 85.1354 16.5072C84.3511 15.7366 83.2634 15.3504 81.8722 15.3485H80.4858V23.5965H81.8722Z" fill="white" stroke="white" stroke-width="0.5" stroke-miterlimit="10"/>
<path d="M100.583 14.5631L97.1796 24.5224H97.006L94.1126 16.583L91.2192 24.5224H91.0455L87.6423 14.5631H88.7207L91.1435 22.3201L94.0874 14.3499H94.1378L97.0816 22.3201L99.5044 14.5631H100.583Z" fill="white" stroke="white" stroke-width="0.5" stroke-miterlimit="10"/>
<path d="M102.333 15.8253C103.285 14.7985 104.574 14.2842 106.198 14.2823C107.565 14.2674 108.887 14.7682 109.901 15.685C110.96 16.6202 111.49 17.8845 111.492 19.478C111.494 21.0715 110.964 22.3339 109.901 23.2653C108.872 24.1625 107.554 24.6566 106.19 24.6566C104.826 24.6566 103.508 24.1625 102.479 23.2653C101.429 22.3302 100.904 21.0696 100.904 19.4836C100.883 18.1238 101.396 16.81 102.333 15.8253ZM103.187 22.6706C103.999 23.4448 105.077 23.8766 106.198 23.8766C107.319 23.8766 108.397 23.4448 109.209 22.6706C110.057 21.8645 110.481 20.7984 110.481 19.4724C110.481 18.1463 110.056 17.0784 109.206 16.2686C108.394 15.4956 107.316 15.0646 106.195 15.0646C105.075 15.0646 103.997 15.4956 103.184 16.2686C102.333 17.0746 101.908 18.1407 101.91 19.4668C101.912 20.7928 102.341 21.8607 103.198 22.6706H103.187Z" fill="white" stroke="white" stroke-width="0.5" stroke-miterlimit="10"/>
<path d="M112.949 14.563H115.568C115.755 14.5658 115.942 14.5798 116.128 14.6051C116.368 14.6378 116.603 14.699 116.828 14.7874C117.238 14.9484 117.6 15.2122 117.878 15.5533C118.195 15.9208 118.355 16.4763 118.355 17.2141C118.354 17.8589 118.117 18.4811 117.688 18.9619C117.245 19.4809 116.439 19.7783 115.274 19.8512L118.747 24.382H117.626L114.265 19.8653H113.901V24.382H112.949V14.563ZM114.881 19.0798C115.851 19.0798 116.504 18.8974 116.842 18.5327C117.011 18.3578 117.143 18.1514 117.232 17.9251C117.321 17.6989 117.365 17.4572 117.36 17.2141C117.36 16.4118 117.128 15.8984 116.666 15.6796C116.172 15.4531 115.634 15.3399 115.091 15.3485H113.887V19.0798H114.881Z" fill="white" stroke="white" stroke-width="0.5" stroke-miterlimit="10"/>
<path d="M120.176 14.563H121.125V19.1218L125.509 14.563H126.685L122.035 19.3182L126.797 24.382H125.523L121.139 19.6128V24.382H120.187L120.176 14.563Z" fill="white" stroke="white" stroke-width="0.5" stroke-miterlimit="10"/>
<path d="M128.172 14.563H129.124V24.382H128.172V14.563Z" fill="white" stroke="white" stroke-width="0.5" stroke-miterlimit="10"/>
<path d="M138.466 14.5631V22.3762L131.343 14.521H131.029V24.3877H131.979V16.569L139.185 24.5224H139.415V14.5631H138.466Z" fill="white" stroke="white" stroke-width="0.5" stroke-miterlimit="10"/>
<path d="M150.72 19.6129C150.718 19.8943 150.7 20.1754 150.664 20.4545C150.624 20.7636 150.557 21.0686 150.465 21.3663C150.211 22.2195 149.741 22.9925 149.101 23.6107C148.423 24.2952 147.389 24.6365 145.998 24.6346C144.639 24.6826 143.317 24.1881 142.323 23.26C141.357 22.3454 140.874 21.0923 140.872 19.5007C140.872 17.8735 141.339 16.5952 142.272 15.6656C142.725 15.2081 143.266 14.8477 143.862 14.6065C144.458 14.3653 145.097 14.2484 145.74 14.2629C146.617 14.2476 147.484 14.453 148.261 14.8605C148.992 15.2537 149.614 15.8248 150.067 16.5213L149.336 17.0543C149.28 16.9814 149.227 16.9028 149.171 16.8243C149.11 16.7385 149.045 16.6561 148.975 16.5774C148.611 16.159 148.18 15.8035 147.701 15.5254C147.102 15.1929 146.424 15.0282 145.74 15.0484C145.198 15.0263 144.659 15.1345 144.168 15.3639C143.677 15.5933 143.248 15.9373 142.917 16.367C142.226 17.2608 141.863 18.3652 141.889 19.4951C141.851 20.6329 142.239 21.7438 142.978 22.6091C143.709 23.4507 144.706 23.8575 145.978 23.8575C147.124 23.8575 148.034 23.504 148.701 22.7915C149.339 22.15 149.703 21.2845 149.714 20.3788H146.182V19.5933L150.72 19.6129Z" fill="white" stroke="white" stroke-width="0.5" stroke-miterlimit="10"/>
</g>
<defs>
<clipPath id="clip0_801_54165">
<rect width="151" height="40" fill="white"/>
</clipPath>
</defs>
</svg>
